<svg width="1920" height="1080" viewBox="0 0 1920 1080" fill="none" xmlns="http://www.w3.org/2000/svg">
<rect width="1920" height="1080" fill="url(#paint0_diamond_1_2)"/>
<path d="M1765.08 111.801C1765.08 117.024 1763.13 122.041 1759.64 125.753C1751.61 134.299 1743.82 143.21 1735.49 151.446C1733.58 153.306 1730.55 153.239 1728.72 151.294L1704.72 125.753C1697.47 118.032 1697.47 105.569 1704.72 97.8487C1712.05 90.0526 1723.98 90.0526 1731.31 97.8487L1732.18 98.777L1733.05 97.8492C1736.56 94.1094 1741.35 92 1746.34 92C1751.34 92 1756.12 94.1092 1759.64 97.8487C1763.13 101.56 1765.08 106.577 1765.08 111.801Z" fill="#212121" stroke="white" stroke-width="2.5" stroke-linejoin="round"/>
<path d="M1756.5 295.672C1754.29 300.407 1750.4 304.128 1745.67 306.017C1734.78 310.369 1723.96 315.153 1712.93 319.097C1710.41 319.976 1707.69 318.634 1706.86 316.1L1695.9 282.809C1692.59 272.746 1697.86 261.45 1707.69 257.519C1717.63 253.549 1728.44 258.593 1731.79 268.755L1732.19 269.965L1733.37 269.492C1738.13 267.587 1743.36 267.697 1747.89 269.809C1752.42 271.921 1755.86 275.854 1757.46 280.728C1759.06 285.566 1758.71 290.938 1756.5 295.672Z" fill="#212121" stroke="white" stroke-width="2.5" stroke-linejoin="round"/>
<path d="M1876.67 183.97C1878.88 188.704 1879.23 194.077 1877.64 198.915C1873.97 210.054 1870.68 221.422 1866.61 232.407C1865.66 234.9 1862.89 236.119 1860.41 235.129L1827.87 222.124C1818.03 218.192 1812.76 206.897 1816.07 196.834C1819.42 186.672 1830.23 181.629 1840.17 185.598L1841.35 186.071L1841.75 184.862C1843.35 179.988 1846.8 176.054 1851.33 173.942C1855.85 171.831 1861.08 171.721 1865.85 173.625C1870.58 175.515 1874.47 179.236 1876.67 183.97Z" fill="#212121" stroke="white" stroke-width="2.5" stroke-linejoin="round"/>
<path d="M1662 170.81C1664.21 175.544 1664.56 180.917 1662.97 185.755C1659.3 196.894 1656.01 208.262 1651.94 219.247C1650.99 221.74 1648.22 222.959 1645.74 221.969L1613.2 208.964C1603.36 205.032 1598.09 193.737 1601.4 183.674C1604.75 173.512 1615.56 168.469 1625.5 172.438L1626.68 172.911L1627.08 171.702C1628.68 166.828 1632.13 162.894 1636.65 160.783C1641.18 158.671 1646.41 158.561 1651.17 160.465C1655.9 162.355 1659.8 166.076 1662 170.81Z" fill="#212121" stroke="white" stroke-width="2.5" stroke-linejoin="round"/>
<path d="M198.535 709.272C198.535 714.356 196.634 719.24 193.238 722.852C185.422 731.17 177.841 739.843 169.733 747.86C167.874 749.67 164.926 749.604 163.147 747.712L139.787 722.852C132.727 715.338 132.727 703.207 139.787 695.693C146.918 688.105 158.534 688.105 165.664 695.693L166.513 696.596L167.362 695.693C170.78 692.053 175.436 690 180.3 690C185.164 690 189.819 692.053 193.238 695.693C196.634 699.305 198.535 704.188 198.535 709.272Z" fill="#212121" stroke="white" stroke-width="2.5" stroke-linejoin="round"/>
<path d="M158.071 869.825C155.923 874.433 152.136 878.055 147.532 879.894C136.932 884.129 126.396 888.786 115.659 892.624C113.21 893.48 110.566 892.174 109.754 889.707L99.0885 857.304C95.8649 847.51 100.992 836.516 110.567 832.69C120.236 828.826 130.763 833.735 134.018 843.625L134.406 844.803L135.557 844.343C140.194 842.489 145.281 842.596 149.689 844.652C154.097 846.707 157.449 850.535 159.01 855.279C160.561 859.988 160.22 865.217 158.071 869.825Z" fill="#212121" stroke="white" stroke-width="2.5" stroke-linejoin="round"/>
<path d="M283.136 766.87C285.285 771.478 285.625 776.707 284.074 781.416C280.506 792.258 277.3 803.323 273.34 814.015C272.421 816.441 269.721 817.627 267.309 816.664L235.631 804.006C226.056 800.179 220.93 789.185 224.153 779.391C227.409 769.5 237.936 764.591 247.605 768.455L248.757 768.915L249.144 767.738C250.704 762.994 254.056 759.166 258.464 757.11C262.872 755.055 267.959 754.948 272.596 756.801C277.201 758.64 280.988 762.262 283.136 766.87Z" fill="#212121" stroke="white" stroke-width="2.5" stroke-linejoin="round"/>
<path d="M66.1881 737.087C68.3367 741.695 68.6772 746.924 67.1264 751.633C63.5578 762.475 60.3525 773.539 56.3917 784.231C55.4726 786.658 52.7726 787.844 50.3609 786.88L18.6833 774.222C9.10835 770.396 3.9816 759.402 7.20527 749.607C10.4606 739.717 20.9882 734.808 30.6572 738.672L31.8087 739.132L32.1962 737.955C33.7562 733.211 37.1082 729.382 41.5163 727.327C45.9244 725.271 51.0115 725.164 55.6483 727.018C60.2528 728.857 64.0395 732.479 66.1881 737.087Z" fill="#212121" stroke="white" stroke-width="2.5" stroke-linejoin="round"/>
<defs>
<radialGradient id="paint0_diamond_1_2" cx="0" cy="0" r="1" gradientUnits="userSpaceOnUse" gradientTransform="translate(960 540) rotate(90) scale(540 960)">
<stop offset="0.0001" stop-color="#CE84DA"/>
</radialGradient>
</defs>
</svg>
