<svg width="1920" height="1080" viewBox="0 0 1920 1080" fill="none" xmlns="http://www.w3.org/2000/svg">
<rect width="1920" height="1080" fill="url(#paint0_diamond_2_2)"/>
<path d="M1781.8 142.613C1781.72 142.639 1781.64 142.669 1781.54 142.702C1781.17 142.821 1780.6 142.975 1779.82 143.099C1778.27 143.346 1775.9 143.473 1772.72 142.938C1769.25 142.354 1767.4 141.471 1766.45 140.804C1766.07 140.539 1765.83 140.306 1765.68 140.14C1765.82 139.818 1766 139.345 1766.22 138.697C1766.67 137.347 1767.28 135.235 1767.92 132.134L1781.8 142.613ZM1781.8 142.613C1781.85 142.505 1781.93 142.345 1782.02 142.125C1782.26 141.545 1782.58 140.547 1782.82 138.963C1783.28 135.902 1783.23 132.574 1782.85 129.57C1782.48 126.553 1781.77 123.937 1780.98 122.28C1780.45 121.195 1779.49 120.582 1778 120.293C1776.48 119.997 1774.54 120.075 1772.31 120.294L1781.8 142.613ZM1768.98 121.009C1768.98 121.09 1768.98 121.178 1768.98 121.271C1768.98 121.896 1768.97 122.789 1768.93 123.876C1768.83 126.047 1768.57 129.004 1767.92 132.134L1768.98 121.009ZM1768.98 121.009C1769.11 120.964 1769.26 120.914 1769.43 120.863C1770.14 120.651 1771.13 120.41 1772.31 120.294L1768.98 121.009ZM1782.04 142.517L1782.04 142.517L1782.04 142.517ZM1768.37 121.24C1768.37 121.24 1768.37 121.24 1768.37 121.24L1768.37 121.24Z" fill="#B70000" stroke="black" stroke-width="2"/>
<path d="M1750.41 135.394C1750.39 136.394 1750.39 136.394 1750.39 136.394L1750.39 136.394L1750.4 136.394L1750.4 136.394L1750.42 136.395L1750.5 136.396C1750.57 136.396 1750.68 136.398 1750.81 136.399C1751.08 136.402 1751.46 136.404 1751.93 136.406C1752.88 136.408 1754.18 136.405 1755.61 136.379C1757.79 136.34 1760.33 136.249 1762.32 136.042C1761.88 137.347 1761.44 138.413 1761.08 139.204C1760.83 139.74 1760.63 140.15 1760.48 140.422C1760.43 140.517 1760.39 140.595 1760.36 140.656C1760.34 140.667 1760.33 140.678 1760.31 140.691C1760.18 140.795 1759.98 140.947 1759.72 141.141C1759.2 141.53 1758.45 142.086 1757.53 142.751C1755.69 144.082 1753.17 145.848 1750.44 147.594C1747.7 149.342 1744.78 151.056 1742.12 152.292C1740.8 152.91 1739.56 153.4 1738.45 153.716C1737.34 154.036 1736.43 154.16 1735.74 154.1C1734.68 154.007 1733.58 153.295 1732.53 151.798C1731.48 150.309 1730.56 148.164 1729.84 145.506C1728.41 140.201 1727.85 133.072 1728.5 125.669C1729.14 118.28 1731.08 111.373 1733.5 106.402C1734.72 103.913 1736.03 101.955 1737.33 100.664C1738.64 99.3559 1739.8 98.8616 1740.75 98.944C1742.34 99.0837 1744.4 99.895 1746.7 101.258C1748.98 102.609 1751.43 104.449 1753.78 106.543C1758.44 110.696 1762.63 115.734 1764.51 119.731C1764.52 119.822 1764.53 119.952 1764.55 120.114C1764.58 120.465 1764.61 120.967 1764.63 121.566C1764.66 122.375 1764.66 123.349 1764.59 124.357C1762.7 123.363 1760.16 122.291 1756.87 121.369C1753.96 120.55 1751.74 120.198 1750.22 120.052C1749.46 119.979 1748.88 119.958 1748.48 119.955C1748.28 119.954 1748.13 119.957 1748.02 119.961C1747.97 119.963 1747.92 119.966 1747.89 119.967L1747.86 119.97L1747.84 119.971L1747.84 119.971L1747.84 119.971L1747.84 119.971C1747.84 119.971 1747.84 119.971 1747.92 120.968L1747.84 119.971L1747.65 121.929C1747.65 121.93 1747.65 121.93 1747.65 121.93L1747.65 121.93L1747.65 121.931L1747.65 121.932L1747.68 121.941C1747.71 121.948 1747.75 121.961 1747.81 121.978C1747.92 122.011 1748.09 122.064 1748.32 122.138C1748.78 122.286 1749.48 122.52 1750.43 122.858C1752.32 123.534 1755.18 124.629 1759.04 126.295C1760.69 127.008 1761.86 127.526 1762.81 127.943C1763.29 128.157 1763.72 128.345 1764.11 128.519C1764.06 128.896 1764 129.284 1763.93 129.683L1763.93 129.684C1763.79 130.484 1763.64 131.255 1763.47 131.989C1762.35 132.287 1760.45 132.739 1758.27 133.098C1756.47 133.393 1754.47 133.72 1752.91 133.974C1752.13 134.101 1751.47 134.209 1751 134.286L1750.45 134.375L1750.3 134.399L1750.26 134.405L1750.25 134.407L1750.25 134.407L1750.25 134.407L1750.25 134.407L1750.41 135.394ZM1750.41 135.394L1750.25 134.407L1750.39 136.394L1750.41 135.394Z" fill="white" stroke="black" stroke-width="2"/>
<path d="M1800.97 141.418L1801.33 140.486L1801.33 140.486L1801.33 140.486L1801.33 140.485L1801.32 140.481L1801.28 140.467L1801.14 140.41C1801.01 140.361 1800.83 140.29 1800.59 140.2C1800.13 140.021 1799.46 139.768 1798.68 139.473C1797.12 138.884 1795.07 138.126 1793.14 137.456C1790.91 136.678 1789.01 135.82 1787.82 135.255C1787.86 133.47 1787.76 131.685 1787.57 129.996C1789.48 129.135 1792.73 127.937 1795.68 126.896C1797.32 126.317 1798.85 125.794 1799.97 125.415C1800.53 125.226 1800.99 125.073 1801.31 124.967C1801.47 124.914 1801.59 124.873 1801.67 124.845L1801.77 124.814L1801.79 124.806L1801.8 124.804L1801.8 124.803L1801.8 124.803L1801.49 123.854M1800.97 141.418C1800.79 142.402 1800.79 142.402 1800.79 142.402L1800.79 142.402L1800.79 142.401L1800.78 142.4L1800.76 142.396L1800.66 142.378C1800.58 142.362 1800.46 142.34 1800.3 142.31C1799.99 142.251 1799.54 142.164 1798.99 142.055C1797.89 141.837 1796.39 141.528 1794.79 141.164C1793.19 140.801 1791.49 140.381 1789.97 139.94C1789.09 139.683 1788.25 139.413 1787.52 139.133C1787.51 139.255 1787.49 139.377 1787.47 139.498C1787.21 141.214 1786.86 142.369 1786.55 143.118C1786.47 143.305 1786.4 143.467 1786.33 143.606C1787.46 145.117 1790.6 148.791 1794.39 152.348C1796.53 154.356 1798.84 156.295 1801.08 157.768C1803.34 159.257 1805.41 160.195 1807.08 160.341C1808.14 160.434 1809.34 159.923 1810.64 158.632C1811.94 157.348 1813.21 155.395 1814.38 152.903C1816.71 147.926 1818.5 141.003 1819.15 133.6C1819.8 126.212 1819.09 119.074 1817.57 113.757C1816.8 111.094 1815.85 108.938 1814.79 107.442C1813.73 105.925 1812.67 105.236 1811.73 105.154C1810.06 105.009 1807.91 105.452 1805.45 106.395C1803.02 107.33 1800.39 108.723 1797.8 110.382C1792.71 113.65 1787.94 117.869 1785.38 121.471C1785.42 121.537 1785.44 121.594 1785.46 121.631L1785.46 121.636C1786.01 122.758 1786.48 124.195 1786.86 125.808C1788.07 125.521 1789.66 125.14 1791.32 124.744C1792.16 124.542 1793.02 124.336 1793.86 124.136C1796.02 123.614 1797.9 123.294 1799.24 123.106C1799.92 123.011 1800.45 122.949 1800.83 122.911C1801.01 122.891 1801.16 122.878 1801.26 122.869C1801.31 122.865 1801.34 122.862 1801.37 122.86L1801.4 122.857L1801.41 122.857L1801.41 122.856L1801.41 122.856L1801.41 122.856C1801.41 122.856 1801.41 122.856 1801.49 123.854M1800.97 141.418L1800.79 142.402L1801.33 140.486L1800.97 141.418ZM1801.49 123.854L1801.8 124.803L1801.41 122.856L1801.49 123.854Z" fill="white" stroke="black" stroke-width="2"/>
<path d="M1711.42 298.623C1711.5 298.83 1711.64 299.13 1711.91 299.51C1712.58 300.463 1714.02 301.926 1717.08 303.662C1719.89 305.255 1722.16 305.948 1723.7 306.246C1724.48 306.395 1725.07 306.446 1725.45 306.461C1725.56 306.465 1725.65 306.466 1725.73 306.466C1725.82 306.384 1725.95 306.261 1726.11 306.085C1726.53 305.622 1727.17 304.792 1727.94 303.385C1729.42 300.667 1730.51 297.524 1731.18 294.571C1731.86 291.607 1732.1 288.909 1731.91 287.079L1711.42 298.623ZM1711.42 298.623C1711.65 298.367 1711.99 297.985 1712.41 297.451C1713.3 296.338 1714.6 294.561 1716.26 291.867L1711.42 298.623ZM1721.06 281.773C1721.03 281.85 1721 281.932 1720.97 282.02C1720.76 282.608 1720.45 283.445 1720.03 284.45C1719.19 286.458 1717.94 289.148 1716.26 291.867L1721.06 281.773ZM1721.06 281.773C1721.2 281.776 1721.36 281.782 1721.54 281.792C1722.27 281.834 1723.29 281.949 1724.44 282.243L1721.06 281.773ZM1729.79 284.193C1728.46 283.392 1726.61 282.802 1724.44 282.243L1729.79 284.193ZM1729.79 284.193C1731.09 284.973 1731.79 285.879 1731.91 287.078L1729.79 284.193ZM1720.4 281.781C1720.4 281.781 1720.4 281.781 1720.4 281.781L1720.4 281.781Z" fill="#ED7200" stroke="black" stroke-width="2"/>
<path d="M1698.67 288.933C1698.31 289.867 1698.32 289.867 1698.32 289.867L1698.32 289.867L1698.32 289.868L1698.32 289.87L1698.34 289.877L1698.42 289.906C1698.48 289.931 1698.58 289.967 1698.7 290.014C1698.95 290.108 1699.31 290.242 1699.76 290.405C1700.65 290.731 1701.87 291.174 1703.23 291.639C1705.3 292.351 1707.71 293.133 1709.66 293.623C1708.79 294.696 1708.01 295.546 1707.41 296.166C1706.99 296.587 1706.66 296.901 1706.43 297.109C1706.35 297.18 1706.29 297.239 1706.23 297.285C1706.22 297.291 1706.2 297.296 1706.18 297.302C1706.02 297.353 1705.77 297.428 1705.46 297.522C1704.84 297.71 1703.95 297.976 1702.86 298.286C1700.67 298.907 1697.7 299.704 1694.53 300.408C1691.36 301.114 1688.02 301.723 1685.1 301.975C1683.64 302.101 1682.31 302.137 1681.16 302.056C1680.01 301.975 1679.11 301.78 1678.48 301.487C1677.51 301.036 1676.72 299.992 1676.24 298.223C1675.76 296.464 1675.63 294.133 1675.87 291.391C1676.34 285.915 1678.24 279.023 1681.38 272.289C1684.52 265.567 1688.7 259.739 1692.68 255.897C1694.67 253.974 1696.58 252.584 1698.24 251.816C1699.92 251.037 1701.19 250.97 1702.05 251.37C1703.5 252.049 1705.16 253.515 1706.86 255.585C1708.54 257.636 1710.21 260.202 1711.71 262.974C1714.68 268.476 1716.89 274.645 1717.3 279.045C1717.27 279.134 1717.24 279.259 1717.2 279.416C1717.1 279.755 1716.96 280.239 1716.78 280.808C1716.53 281.578 1716.19 282.494 1715.79 283.419C1714.35 281.836 1712.32 279.958 1709.55 277.965C1707.09 276.201 1705.12 275.107 1703.74 274.45C1703.05 274.121 1702.51 273.902 1702.14 273.764C1701.95 273.694 1701.8 273.645 1701.7 273.612C1701.65 273.595 1701.61 273.583 1701.58 273.574L1701.54 273.564L1701.53 273.561L1701.53 273.559L1701.53 273.559L1701.53 273.559C1701.53 273.559 1701.53 273.559 1701.26 274.523L1701.53 273.559L1700.68 275.333C1700.68 275.334 1700.68 275.334 1700.68 275.334L1700.68 275.334L1700.68 275.335L1700.68 275.338L1700.71 275.356C1700.73 275.373 1700.76 275.398 1700.81 275.433C1700.9 275.504 1701.05 275.612 1701.24 275.761C1701.62 276.059 1702.2 276.518 1702.98 277.159C1704.52 278.442 1706.84 280.45 1709.91 283.34C1711.22 284.575 1712.14 285.462 1712.88 286.178C1713.27 286.544 1713.6 286.866 1713.92 287.166C1713.73 287.501 1713.55 287.845 1713.34 288.197L1713.34 288.198C1712.94 288.903 1712.53 289.573 1712.12 290.206C1710.96 290.101 1709.02 289.876 1706.85 289.466C1705.06 289.128 1703.06 288.749 1701.51 288.455C1700.74 288.308 1700.07 288.181 1699.6 288.092L1699.05 287.988L1698.91 287.96L1698.87 287.953L1698.86 287.951L1698.86 287.951L1698.86 287.95L1698.86 287.95L1698.67 288.933ZM1698.67 288.933L1698.86 287.95L1698.31 289.867L1698.67 288.933Z" fill="white" stroke="black" stroke-width="2"/>
<path d="M1744.17 311.909L1744.83 311.158L1744.83 311.158L1744.83 311.157L1744.83 311.155L1744.82 311.149L1744.79 311.122L1744.67 311.02C1744.57 310.93 1744.42 310.8 1744.23 310.636C1743.86 310.307 1743.32 309.843 1742.69 309.298C1741.42 308.209 1739.75 306.795 1738.16 305.504M1744.17 311.909L1738.16 305.504M1744.17 311.909C1743.67 312.772 1743.67 312.772 1743.67 312.772L1743.67 312.772L1743.67 312.771L1743.66 312.768L1743.64 312.755L1743.55 312.706C1743.48 312.663 1743.37 312.6 1743.24 312.518C1742.96 312.355 1742.57 312.12 1742.09 311.83C1741.13 311.249 1739.83 310.445 1738.45 309.555C1737.07 308.667 1735.61 307.687 1734.33 306.754C1733.59 306.211 1732.89 305.668 1732.3 305.156C1732.25 305.265 1732.19 305.373 1732.13 305.481M1744.17 311.909L1743.67 312.772L1744.83 311.158L1744.17 311.909ZM1744.17 311.909L1733.91 301.614M1738.16 305.504C1738.16 305.504 1738.16 305.504 1738.16 305.505L1737.53 306.279L1738.16 305.504ZM1733.91 301.614C1734.56 299.95 1735.08 298.239 1735.48 296.588C1737.57 296.432 1741.03 296.419 1744.16 296.452C1745.91 296.47 1747.52 296.502 1748.71 296.53C1749.3 296.543 1749.78 296.556 1750.12 296.565C1750.28 296.57 1750.41 296.574 1750.5 296.576L1750.6 296.579L1750.63 296.58L1750.63 296.58L1750.63 296.58L1750.63 296.58L1750.67 295.581M1733.91 301.614C1733.83 301.819 1733.75 302.022 1733.67 302.225L1732.74 301.846L1733.46 301.153C1733.59 301.287 1733.74 301.442 1733.91 301.614ZM1750.67 295.581L1750.63 296.58L1750.94 294.619L1750.67 295.581ZM1750.67 295.581C1750.94 294.619 1750.94 294.619 1750.94 294.619L1750.94 294.619L1750.94 294.618L1750.93 294.618L1750.93 294.615L1750.9 294.607C1750.87 294.6 1750.83 294.59 1750.79 294.577C1750.69 294.551 1750.55 294.514 1750.37 294.468C1750 294.377 1749.48 294.251 1748.81 294.11C1747.48 293.827 1745.6 293.483 1743.39 293.233M1750.67 295.581C1750.7 294.581 1750.7 294.581 1750.7 294.581L1750.7 294.581L1750.69 294.581L1750.69 294.581L1750.66 294.58L1750.56 294.577C1750.47 294.574 1750.34 294.571 1750.17 294.566C1749.83 294.557 1749.35 294.544 1748.75 294.53C1747.78 294.507 1746.5 294.482 1745.1 294.463C1744.53 294.379 1743.92 294.298 1743.28 294.226M1750.67 295.581C1750.39 296.543 1750.39 296.543 1750.39 296.543L1750.39 296.542L1750.39 296.541L1750.36 296.535C1750.34 296.529 1750.31 296.52 1750.27 296.508C1750.18 296.485 1750.05 296.451 1749.88 296.408C1749.54 296.322 1749.03 296.202 1748.4 296.066C1747.51 295.877 1746.36 295.659 1745.02 295.462C1741.35 295.414 1736.84 295.416 1734.67 295.657L1736.11 293.4M1743.39 293.233C1742.54 293.134 1741.66 293.033 1740.79 292.934C1739.1 292.74 1737.48 292.553 1736.24 292.409M1743.39 293.233C1743.39 293.233 1743.39 293.233 1743.39 293.233L1743.28 294.226M1743.39 293.233C1743.39 293.233 1743.39 293.233 1743.39 293.233L1743.28 294.226M1736.24 292.409C1736.43 290.762 1736.48 289.249 1736.35 288.008L1736.35 288.003C1736.34 287.962 1736.34 287.899 1736.33 287.827C1739.97 285.318 1745.9 282.986 1751.8 281.659C1754.8 280.985 1757.76 280.578 1760.37 280.532C1762.99 280.486 1765.18 280.808 1766.69 281.514C1767.55 281.915 1768.31 282.925 1768.8 284.716C1769.28 286.483 1769.44 288.836 1769.24 291.6C1768.86 297.118 1767.08 304.067 1763.95 310.789C1760.81 317.524 1756.75 323.415 1752.86 327.294C1750.91 329.237 1749.04 330.635 1747.39 331.399C1745.72 332.167 1744.42 332.235 1743.45 331.784C1741.93 331.074 1740.3 329.484 1738.68 327.311C1737.09 325.161 1735.57 322.547 1734.25 319.927C1731.9 315.286 1730.2 310.758 1729.65 308.951M1736.24 292.409C1736.2 292.734 1736.16 293.065 1736.11 293.4M1736.24 292.409C1735.87 292.366 1735.54 292.326 1735.25 292.291C1735.43 290.696 1735.47 289.259 1735.35 288.11L1736.11 293.4M1729.65 308.951C1729.76 308.845 1729.89 308.718 1730.03 308.568C1730.57 307.969 1731.3 307.005 1732.13 305.481M1729.65 308.951C1729.54 309.058 1729.44 309.145 1729.35 309.215C1729.27 309.285 1729.2 309.338 1729.14 309.377C1729.11 309.397 1729.09 309.413 1729.07 309.426C1729.06 309.432 1729.05 309.438 1729.04 309.443L1729.03 309.449L1729.03 309.452L1729.02 309.454L1729.02 309.454C1729.02 309.455 1729.02 309.455 1728.52 308.59M1729.65 308.951C1729.58 308.708 1729.53 308.515 1729.5 308.377L1728.52 308.59M1732.13 305.481C1732.13 305.48 1732.13 305.479 1732.13 305.478L1731.25 305M1732.13 305.481C1732.13 305.482 1732.13 305.482 1732.13 305.483L1731.25 305M1731.25 305C1729.65 307.933 1728.52 308.59 1728.52 308.59M1731.25 305L1735.55 287.155C1743.08 281.822 1760.26 277.412 1767.11 280.608C1772.11 282.936 1771.21 297.575 1764.85 311.212C1758.5 324.849 1748.39 335.191 1743.03 332.69C1736.02 329.422 1729.08 311.163 1728.52 308.59M1736.11 293.4C1737.35 293.545 1738.98 293.733 1740.68 293.928C1741.55 294.027 1742.42 294.128 1743.28 294.226" fill="white" stroke="black" stroke-width="2"/>
<path d="M1848.95 220.551C1849.15 220.637 1849.47 220.741 1849.93 220.813C1851.08 220.993 1853.13 220.977 1856.51 219.979C1859.6 219.063 1861.68 217.91 1862.97 217.008C1863.61 216.557 1864.06 216.167 1864.34 215.898C1864.41 215.824 1864.48 215.759 1864.53 215.705C1864.54 215.581 1864.54 215.403 1864.52 215.165C1864.48 214.54 1864.33 213.505 1863.85 211.976C1862.92 209.023 1861.42 206.053 1859.76 203.518C1858.1 200.972 1856.32 198.929 1854.88 197.79L1848.95 220.551ZM1848.95 220.551C1848.93 220.203 1848.88 219.698 1848.8 219.02C1848.61 217.608 1848.23 215.443 1847.45 212.374L1848.95 220.551ZM1843.52 201.914C1843.56 201.986 1843.6 202.064 1843.64 202.148C1843.92 202.707 1844.3 203.514 1844.73 204.512C1845.6 206.506 1846.66 209.277 1847.45 212.374L1843.52 201.914ZM1843.52 201.914C1843.62 201.814 1843.74 201.703 1843.87 201.581C1844.41 201.083 1845.2 200.428 1846.21 199.808L1843.52 201.914ZM1851.33 197.309C1849.83 197.711 1848.12 198.631 1846.21 199.808L1851.33 197.309ZM1851.33 197.309C1852.8 196.916 1853.93 197.045 1854.88 197.79L1851.33 197.309ZM1843.07 202.389C1843.07 202.389 1843.07 202.389 1843.07 202.389L1843.07 202.389Z" fill="#31C00D" stroke="black" stroke-width="2"/>
<path d="M1833.12 222.988C1833.55 223.894 1833.55 223.894 1833.55 223.894L1833.55 223.894L1833.55 223.893L1833.55 223.891L1833.57 223.882L1833.65 223.847C1833.71 223.817 1833.8 223.773 1833.92 223.716C1834.16 223.601 1834.51 223.435 1834.94 223.229C1835.79 222.817 1836.96 222.242 1838.23 221.592C1840.18 220.597 1842.42 219.404 1844.13 218.343C1844.3 219.711 1844.37 220.862 1844.39 221.731C1844.41 222.32 1844.4 222.778 1844.39 223.086C1844.39 223.193 1844.39 223.281 1844.38 223.351C1844.38 223.367 1844.37 223.384 1844.36 223.402C1844.28 223.555 1844.17 223.78 1844.02 224.069C1843.73 224.645 1843.3 225.472 1842.76 226.473C1841.69 228.477 1840.2 231.17 1838.5 233.938C1836.81 236.71 1834.92 239.534 1833.08 241.81C1832.15 242.948 1831.25 243.933 1830.4 244.7C1829.54 245.476 1828.77 245.987 1828.13 246.236C1827.13 246.618 1825.83 246.459 1824.22 245.577C1822.63 244.7 1820.86 243.175 1819.05 241.101C1815.44 236.96 1811.8 230.8 1809.14 223.862C1806.48 216.938 1805.2 209.882 1805.2 204.35C1805.2 201.58 1805.52 199.244 1806.12 197.515C1806.73 195.762 1807.56 194.807 1808.45 194.468C1809.95 193.892 1812.15 193.72 1814.82 193.934C1817.47 194.147 1820.47 194.73 1823.51 195.579C1829.52 197.266 1835.5 199.956 1838.95 202.722C1839 202.8 1839.06 202.911 1839.15 203.051C1839.33 203.354 1839.58 203.791 1839.86 204.32C1840.24 205.036 1840.66 205.911 1841.05 206.845C1838.91 206.784 1836.15 206.936 1832.79 207.547C1829.81 208.087 1827.65 208.749 1826.22 209.284C1825.51 209.551 1824.98 209.787 1824.62 209.959C1824.44 210.045 1824.3 210.116 1824.21 210.166C1824.16 210.192 1824.12 210.212 1824.1 210.227L1824.06 210.245L1824.05 210.251L1824.05 210.254L1824.05 210.254L1824.05 210.255C1824.05 210.255 1824.05 210.255 1824.56 211.116L1824.05 210.255L1824.73 212.099C1824.73 212.1 1824.73 212.1 1824.73 212.1L1824.73 212.1L1824.73 212.1L1824.74 212.098L1824.77 212.093C1824.8 212.089 1824.84 212.081 1824.9 212.072C1825.01 212.053 1825.19 212.025 1825.43 211.991C1825.91 211.921 1826.65 211.823 1827.65 211.712C1829.64 211.491 1832.7 211.22 1836.9 211.022C1838.7 210.938 1839.98 210.89 1841.01 210.851C1841.54 210.831 1842.01 210.814 1842.44 210.796C1842.56 211.158 1842.67 211.534 1842.79 211.923L1842.79 211.923C1843.02 212.702 1843.21 213.464 1843.38 214.197C1842.5 214.957 1840.99 216.197 1839.19 217.476C1837.7 218.53 1836.04 219.704 1834.75 220.614C1834.11 221.069 1833.56 221.459 1833.17 221.734L1832.71 222.056L1832.59 222.142L1832.56 222.164L1832.55 222.17L1832.55 222.171L1832.55 222.171L1832.55 222.171L1833.12 222.988ZM1833.12 222.988L1832.55 222.171L1833.55 223.894L1833.12 222.988Z" fill="white" stroke="black" stroke-width="2"/>
<path d="M1881.26 206.218L1881.18 205.222L1881.18 205.222L1881.18 205.222L1881.17 205.222L1881.16 205.223L1881.12 205.226L1880.97 205.239C1880.83 205.25 1880.64 205.267 1880.39 205.289C1879.89 205.332 1879.18 205.395 1878.35 205.474C1876.68 205.63 1874.51 205.848 1872.48 206.092M1881.26 206.218L1872.48 206.092M1881.26 206.218C1881.53 207.181 1881.53 207.181 1881.53 207.181L1881.53 207.181L1881.53 207.182L1881.52 207.183L1881.5 207.19L1881.4 207.216C1881.32 207.239 1881.2 207.272 1881.05 207.314C1880.74 207.398 1880.3 207.518 1879.76 207.661C1878.67 207.946 1877.19 208.326 1875.59 208.701C1873.99 209.075 1872.27 209.447 1870.72 209.715C1869.81 209.871 1868.93 209.997 1868.16 210.064C1868.2 210.182 1868.23 210.299 1868.27 210.416M1881.26 206.218L1881.53 207.181L1881.18 205.222L1881.26 206.218ZM1881.26 206.218L1866.73 206.447M1872.48 206.092C1872.48 206.092 1872.48 206.092 1872.48 206.092L1872.6 207.084L1872.48 206.092ZM1866.73 206.447C1865.98 204.827 1865.11 203.265 1864.2 201.831C1865.54 200.22 1867.93 197.717 1870.13 195.487C1871.36 194.246 1872.5 193.104 1873.35 192.273C1873.77 191.857 1874.11 191.519 1874.35 191.285C1874.47 191.168 1874.56 191.077 1874.63 191.015L1874.7 190.945L1874.72 190.927L1874.72 190.923L1874.72 190.922L1874.72 190.922L1874.02 190.205M1866.73 206.447C1866.82 206.646 1866.91 206.846 1867 207.047L1866.08 207.449L1866.08 206.449C1866.27 206.45 1866.48 206.449 1866.73 206.447ZM1874.02 190.205L1874.72 190.922L1873.52 189.34L1874.02 190.205ZM1874.02 190.205C1873.52 189.34 1873.52 189.34 1873.52 189.34L1873.52 189.341L1873.52 189.341L1873.52 189.342L1873.51 189.347L1873.48 189.362C1873.46 189.376 1873.43 189.396 1873.38 189.421C1873.3 189.473 1873.17 189.548 1873.02 189.647C1872.7 189.845 1872.24 190.137 1871.68 190.517C1870.55 191.276 1869 192.388 1867.28 193.807M1874.02 190.205C1873.33 189.489 1873.33 189.489 1873.33 189.489L1873.33 189.489L1873.32 189.49L1873.32 189.495L1873.3 189.513L1873.23 189.584C1873.16 189.647 1873.07 189.739 1872.95 189.856C1872.71 190.092 1872.36 190.432 1871.94 190.85C1871.24 191.538 1870.34 192.436 1869.36 193.429C1868.89 193.785 1868.41 194.169 1867.92 194.578M1874.02 190.205C1874.53 191.07 1874.53 191.07 1874.53 191.07L1874.52 191.07L1874.52 191.073L1874.5 191.085C1874.48 191.096 1874.45 191.113 1874.41 191.136C1874.34 191.182 1874.22 191.252 1874.07 191.345C1873.77 191.531 1873.34 191.81 1872.8 192.175C1872.04 192.683 1871.09 193.356 1870.02 194.18C1867.43 196.791 1864.3 200.034 1862.96 201.768L1862.34 199.163M1867.28 193.807C1866.62 194.353 1865.93 194.916 1865.26 195.467C1863.95 196.55 1862.68 197.59 1861.72 198.379M1867.28 193.807C1867.28 193.807 1867.28 193.807 1867.28 193.807L1867.92 194.578M1867.28 193.807C1867.28 193.806 1867.28 193.806 1867.28 193.806L1867.92 194.578M1861.72 198.379C1860.67 197.096 1859.61 196.013 1858.63 195.242L1858.63 195.239C1858.59 195.214 1858.55 195.175 1858.49 195.129C1859.21 190.769 1861.65 184.886 1864.8 179.716C1866.4 177.091 1868.16 174.682 1869.94 172.774C1871.73 170.851 1873.48 169.505 1875.04 168.907C1875.92 168.567 1877.18 168.722 1878.8 169.616C1880.41 170.499 1882.21 172.018 1884.06 174.076C1887.77 178.186 1891.53 184.291 1894.19 191.215C1896.85 198.152 1898.28 205.161 1898.36 210.656C1898.4 213.408 1898.11 215.724 1897.51 217.445C1896.91 219.176 1896.05 220.163 1895.05 220.545C1893.48 221.147 1891.21 221.213 1888.52 220.866C1885.87 220.522 1882.94 219.794 1880.13 218.928C1875.16 217.394 1870.72 215.472 1869.04 214.609M1861.72 198.379C1861.93 198.633 1862.13 198.895 1862.34 199.163M1861.72 198.379C1861.43 198.614 1861.17 198.827 1860.95 199.012C1859.93 197.768 1858.92 196.742 1858.01 196.029L1862.34 199.163M1869.04 214.609C1869.05 214.454 1869.04 214.276 1869.03 214.074C1868.98 213.266 1868.79 212.073 1868.27 210.416M1869.04 214.609C1869.04 214.764 1869.04 214.896 1869.03 215.006C1869.02 215.116 1869.01 215.204 1869 215.272C1868.99 215.306 1868.99 215.334 1868.98 215.358C1868.98 215.369 1868.98 215.38 1868.97 215.389L1868.97 215.402L1868.97 215.408L1868.97 215.41L1868.97 215.412C1868.97 215.412 1868.97 215.413 1868 215.172M1869.04 214.609C1868.82 214.493 1868.64 214.396 1868.52 214.321L1868 215.172M1868.27 210.416C1868.27 210.415 1868.27 210.414 1868.27 210.414L1867.31 210.713M1868.27 210.416C1868.27 210.417 1868.27 210.418 1868.27 210.419L1867.31 210.713M1867.31 210.713C1868.31 213.9 1868 215.172 1868 215.172M1867.31 210.713L1857.46 195.226C1858.85 186.106 1867.62 170.683 1874.68 167.973C1879.82 165.998 1889.73 176.809 1895.12 190.857C1900.52 204.904 1900.94 219.358 1895.41 221.479C1888.19 224.25 1870.24 216.556 1868 215.172M1862.34 199.163C1863.31 198.371 1864.58 197.325 1865.9 196.238C1866.57 195.686 1867.25 195.124 1867.92 194.578" fill="white" stroke="black" stroke-width="2"/>
<path d="M1646.49 211.519C1646.7 211.591 1647.03 211.672 1647.49 211.712C1648.65 211.812 1650.69 211.652 1653.99 210.421C1657.02 209.291 1659.01 207.996 1660.23 207.007C1660.84 206.512 1661.26 206.091 1661.52 205.804C1661.59 205.725 1661.65 205.655 1661.7 205.598C1661.7 205.474 1661.69 205.296 1661.65 205.06C1661.57 204.439 1661.34 203.417 1660.76 201.925C1659.63 199.044 1657.92 196.186 1656.09 193.772C1654.26 191.349 1652.34 189.435 1650.82 188.4L1646.49 211.519ZM1646.49 211.519C1646.45 211.173 1646.37 210.673 1646.23 210.002C1645.95 208.607 1645.42 206.473 1644.43 203.466L1646.49 211.519ZM1639.78 193.305C1639.82 193.375 1639.87 193.45 1639.91 193.531C1640.23 194.069 1640.67 194.847 1641.17 195.813C1642.17 197.741 1643.43 200.431 1644.43 203.466L1639.78 193.305ZM1639.78 193.305C1639.87 193.199 1639.98 193.08 1640.1 192.949C1640.61 192.415 1641.35 191.706 1642.31 191.017L1639.78 193.305ZM1647.25 188.167C1645.78 188.673 1644.14 189.709 1642.31 191.017L1647.25 188.167ZM1647.25 188.167C1648.68 187.673 1649.82 187.722 1650.82 188.399L1647.25 188.167ZM1639.37 193.81C1639.37 193.81 1639.37 193.81 1639.37 193.81L1639.37 193.81Z" fill="#00CC83" stroke="black" stroke-width="2"/>
<path d="M1630.88 215.054C1631.36 215.928 1631.36 215.928 1631.36 215.928L1631.36 215.927L1631.36 215.927L1631.37 215.924L1631.39 215.914L1631.46 215.875C1631.52 215.84 1631.61 215.789 1631.73 215.724C1631.96 215.593 1632.29 215.403 1632.7 215.168C1633.52 214.697 1634.65 214.042 1635.88 213.304C1637.75 212.176 1639.9 210.83 1641.53 209.652C1641.8 211.005 1641.95 212.148 1642.03 213.013C1642.09 213.6 1642.12 214.058 1642.13 214.365C1642.13 214.472 1642.13 214.56 1642.14 214.63C1642.13 214.647 1642.12 214.664 1642.11 214.683C1642.05 214.841 1641.95 215.074 1641.82 215.371C1641.57 215.967 1641.2 216.822 1640.73 217.858C1639.8 219.931 1638.5 222.723 1637.01 225.602C1635.51 228.485 1633.83 231.434 1632.14 233.833C1631.3 235.033 1630.47 236.078 1629.67 236.903C1628.87 237.737 1628.14 238.301 1627.51 238.593C1626.55 239.044 1625.24 238.976 1623.58 238.209C1621.92 237.445 1620.05 236.047 1618.1 234.104C1614.21 230.225 1610.15 224.333 1607.01 217.599C1603.88 210.877 1602.1 203.928 1601.72 198.409C1601.53 195.646 1601.69 193.293 1602.17 191.526C1602.65 189.735 1603.41 188.725 1604.27 188.324C1605.73 187.646 1607.91 187.32 1610.59 187.347C1613.25 187.375 1616.29 187.747 1619.37 188.383C1625.49 189.645 1631.64 191.912 1635.27 194.43C1635.33 194.505 1635.4 194.611 1635.49 194.745C1635.69 195.035 1635.97 195.453 1636.29 195.962C1636.72 196.65 1637.21 197.492 1637.66 198.397C1635.52 198.485 1632.78 198.829 1629.47 199.674C1626.54 200.42 1624.43 201.231 1623.04 201.864C1622.34 202.181 1621.83 202.453 1621.48 202.65C1621.31 202.748 1621.18 202.828 1621.09 202.885C1621.04 202.914 1621.01 202.937 1620.98 202.953L1620.95 202.974L1620.94 202.981L1620.94 202.983L1620.94 202.984L1620.93 202.985C1620.93 202.985 1620.93 202.985 1621.5 203.808L1620.93 202.985L1621.75 204.776C1621.75 204.777 1621.75 204.777 1621.75 204.777L1621.75 204.777L1621.75 204.777L1621.76 204.775L1621.78 204.768C1621.81 204.762 1621.85 204.752 1621.91 204.738C1622.02 204.711 1622.2 204.671 1622.44 204.619C1622.91 204.516 1623.64 204.368 1624.63 204.188C1626.6 203.828 1629.63 203.344 1633.81 202.853C1635.6 202.644 1636.87 202.507 1637.9 202.396C1638.43 202.339 1638.89 202.29 1639.32 202.241C1639.46 202.595 1639.6 202.961 1639.74 203.341L1639.74 203.342C1640.03 204.102 1640.28 204.849 1640.5 205.569C1639.67 206.388 1638.25 207.731 1636.54 209.132C1635.13 210.287 1633.56 211.574 1632.34 212.572C1631.72 213.071 1631.2 213.498 1630.83 213.8L1630.4 214.153L1630.28 214.247L1630.25 214.271L1630.25 214.277L1630.24 214.279L1630.24 214.279L1630.24 214.279L1630.88 215.054ZM1630.88 215.054L1630.24 214.279L1631.36 215.928L1630.88 215.054Z" fill="white" stroke="black" stroke-width="2"/>
<path d="M1677.73 194.967L1677.57 193.978L1677.57 193.979L1677.57 193.979L1677.57 193.979L1677.56 193.981L1677.52 193.987L1677.37 194.01C1677.23 194.031 1677.04 194.062 1676.79 194.101C1676.3 194.179 1675.59 194.291 1674.77 194.427C1673.12 194.699 1670.96 195.068 1668.96 195.454M1677.73 194.967L1668.96 195.454M1677.73 194.967C1678.06 195.908 1678.06 195.909 1678.06 195.909L1678.06 195.909L1678.06 195.909L1678.05 195.912L1678.03 195.92L1677.94 195.952C1677.86 195.981 1677.74 196.022 1677.59 196.075C1677.29 196.18 1676.86 196.33 1676.33 196.511C1675.26 196.871 1673.81 197.354 1672.24 197.839C1670.68 198.324 1668.98 198.815 1667.45 199.191C1666.56 199.409 1665.69 199.596 1664.92 199.717C1664.97 199.832 1665.01 199.946 1665.06 200.061M1677.73 194.967L1678.06 195.908L1677.57 193.978L1677.73 194.967ZM1677.73 194.967L1663.24 196.209M1668.96 195.454C1668.96 195.454 1668.96 195.454 1668.96 195.454L1669.14 196.435L1668.96 195.454ZM1663.24 196.209C1662.38 194.645 1661.41 193.147 1660.4 191.781C1661.62 190.08 1663.84 187.416 1665.88 185.038C1667.01 183.715 1668.08 182.496 1668.86 181.607C1669.25 181.163 1669.57 180.802 1669.79 180.552C1669.9 180.427 1669.99 180.33 1670.05 180.264L1670.11 180.189L1670.13 180.17L1670.13 180.165L1670.14 180.164L1670.14 180.164L1669.39 179.498M1663.24 196.209C1663.35 196.401 1663.45 196.595 1663.56 196.789L1662.67 197.254L1662.6 196.256C1662.79 196.244 1663 196.228 1663.24 196.209ZM1669.39 179.498L1670.14 180.164L1668.83 178.67L1669.39 179.498ZM1669.39 179.498C1668.83 178.67 1668.83 178.67 1668.83 178.67L1668.83 178.67L1668.83 178.671L1668.83 178.672L1668.82 178.677L1668.79 178.695C1668.77 178.71 1668.74 178.732 1668.7 178.76C1668.62 178.818 1668.5 178.902 1668.35 179.011C1668.04 179.231 1667.61 179.554 1667.07 179.972C1666 180.808 1664.53 182.026 1662.92 183.561M1669.39 179.498C1668.64 178.832 1668.64 178.832 1668.64 178.832L1668.64 178.832L1668.64 178.833L1668.64 178.838L1668.62 178.858L1668.55 178.934C1668.49 179.001 1668.41 179.099 1668.29 179.225C1668.07 179.477 1667.75 179.84 1667.36 180.286C1666.71 181.021 1665.87 181.98 1664.96 183.039C1664.52 183.427 1664.07 183.843 1663.6 184.286M1669.39 179.498C1669.95 180.325 1669.95 180.325 1669.95 180.325L1669.95 180.326L1669.95 180.329L1669.93 180.342C1669.91 180.354 1669.88 180.373 1669.84 180.399C1669.77 180.45 1669.66 180.528 1669.52 180.632C1669.23 180.838 1668.82 181.147 1668.3 181.548C1667.59 182.107 1666.68 182.846 1665.67 183.742C1663.27 186.528 1660.38 189.981 1659.16 191.803L1658.36 189.249M1662.92 183.561C1662.29 184.152 1661.65 184.761 1661.02 185.358C1659.78 186.529 1658.59 187.655 1657.69 188.51M1662.92 183.561C1662.92 183.561 1662.92 183.561 1662.92 183.561L1663.6 184.286M1662.92 183.561C1662.92 183.56 1662.92 183.56 1662.92 183.56L1663.6 184.286M1657.69 188.51C1656.55 187.303 1655.42 186.297 1654.39 185.596L1654.38 185.594C1654.35 185.571 1654.3 185.535 1654.24 185.494C1654.65 181.093 1656.68 175.055 1659.46 169.677C1660.87 166.947 1662.46 164.421 1664.1 162.394C1665.75 160.351 1667.4 158.886 1668.91 158.18C1669.77 157.78 1671.04 157.847 1672.72 158.626C1674.38 159.394 1676.29 160.784 1678.28 162.707C1682.26 166.549 1686.44 172.377 1689.58 179.098C1692.72 185.833 1694.63 192.725 1695.1 198.201C1695.33 200.943 1695.2 203.274 1694.72 205.033C1694.24 206.802 1693.45 207.846 1692.48 208.297C1690.96 209.007 1688.7 209.231 1685.99 209.072C1683.32 208.915 1680.35 208.393 1677.49 207.725C1672.42 206.541 1667.86 204.933 1666.13 204.189M1657.69 188.51C1657.91 188.749 1658.14 188.996 1658.36 189.249M1657.69 188.51C1657.42 188.765 1657.17 188.995 1656.96 189.196C1655.86 188.026 1654.78 187.072 1653.83 186.424L1658.36 189.249M1666.13 204.189C1666.12 204.034 1666.1 203.857 1666.07 203.656C1665.96 202.854 1665.69 201.677 1665.06 200.061M1666.13 204.189C1666.14 204.344 1666.14 204.476 1666.14 204.587C1666.14 204.697 1666.13 204.786 1666.12 204.854C1666.12 204.888 1666.12 204.917 1666.11 204.941C1666.11 204.953 1666.11 204.963 1666.11 204.972L1666.11 204.986L1666.11 204.991L1666.11 204.994L1666.11 204.995C1666.11 204.996 1666.11 204.997 1665.12 204.824M1666.13 204.189C1665.89 204.089 1665.71 204.005 1665.59 203.939L1665.12 204.824M1665.06 200.061C1665.06 200.06 1665.06 200.059 1665.06 200.058L1664.13 200.423M1665.06 200.061C1665.06 200.062 1665.06 200.063 1665.06 200.064L1664.13 200.423M1664.13 200.423C1665.35 203.533 1665.12 204.824 1665.12 204.824M1664.13 200.423L1653.22 185.662C1653.97 176.466 1661.64 160.47 1668.49 157.274C1673.49 154.945 1684.13 165.039 1690.48 178.676C1696.84 192.313 1698.27 206.702 1692.91 209.203C1685.9 212.472 1667.45 206.048 1665.12 204.824M1658.36 189.249C1659.27 188.391 1660.47 187.259 1661.71 186.082C1662.34 185.485 1662.98 184.876 1663.6 184.286" fill="white" stroke="black" stroke-width="2"/>
<path d="M188.795 728.613C188.724 728.639 188.638 728.669 188.537 728.702C188.168 728.821 187.596 728.975 186.82 729.099C185.271 729.346 182.902 729.473 179.719 728.938C176.251 728.354 174.403 727.471 173.45 726.805C173.069 726.539 172.83 726.307 172.685 726.14C172.819 725.818 173.001 725.345 173.219 724.697C173.673 723.347 174.281 721.235 174.923 718.134L188.795 728.613ZM188.795 728.613C188.854 728.505 188.933 728.345 189.024 728.125C189.261 727.545 189.577 726.547 189.817 724.963C190.278 721.902 190.231 718.574 189.854 715.57C189.476 712.553 188.775 709.937 187.977 708.28C187.452 707.195 186.49 706.582 185.004 706.293C183.479 705.997 181.544 706.075 179.31 706.294L188.795 728.613ZM175.976 707.009C175.978 707.09 175.978 707.178 175.979 707.271C175.983 707.896 175.975 708.789 175.927 709.876C175.83 712.047 175.572 715.004 174.923 718.134L175.976 707.009ZM175.976 707.009C176.11 706.964 176.262 706.914 176.434 706.863C177.135 706.651 178.134 706.41 179.31 706.294L175.976 707.009ZM189.036 728.517L189.036 728.517L189.036 728.517ZM175.366 707.24C175.365 707.24 175.365 707.24 175.366 707.24L175.366 707.24Z" fill="#B70000" stroke="black" stroke-width="2"/>
<path d="M157.408 721.394C157.393 722.394 157.393 722.394 157.393 722.394L157.394 722.394L157.395 722.394L157.401 722.394L157.421 722.395L157.502 722.396C157.573 722.396 157.676 722.398 157.809 722.399C158.075 722.402 158.459 722.404 158.932 722.406C159.877 722.408 161.18 722.405 162.609 722.379C164.794 722.34 167.327 722.249 169.323 722.042C168.878 723.347 168.436 724.413 168.077 725.204C167.833 725.74 167.627 726.15 167.484 726.422C167.434 726.517 167.392 726.595 167.359 726.656C167.345 726.667 167.329 726.678 167.313 726.691C167.177 726.795 166.976 726.947 166.718 727.141C166.201 727.53 165.453 728.086 164.534 728.751C162.694 730.082 160.173 731.848 157.441 733.594C154.705 735.342 151.778 737.056 149.123 738.292C147.796 738.91 146.555 739.4 145.453 739.716C144.34 740.036 143.429 740.16 142.74 740.1C141.679 740.007 140.583 739.295 139.527 737.798C138.476 736.309 137.558 734.164 136.841 731.506C135.412 726.201 134.848 719.072 135.496 711.669C136.142 704.28 138.077 697.373 140.501 692.402C141.715 689.913 143.029 687.955 144.327 686.664C145.642 685.356 146.804 684.862 147.747 684.944C149.343 685.084 151.398 685.895 153.702 687.258C155.985 688.609 158.426 690.449 160.777 692.543C165.443 696.696 169.632 701.734 171.514 705.731C171.523 705.822 171.535 705.952 171.548 706.114C171.576 706.465 171.609 706.967 171.629 707.566C171.655 708.375 171.658 709.349 171.593 710.357C169.698 709.363 167.155 708.291 163.871 707.369C160.965 706.55 158.735 706.198 157.217 706.052C156.458 705.979 155.877 705.958 155.479 705.955C155.28 705.954 155.126 705.957 155.019 705.961C154.966 705.963 154.923 705.966 154.893 705.967L154.856 705.97L154.844 705.971L154.84 705.971L154.838 705.971L154.837 705.971C154.837 705.971 154.837 705.971 154.917 706.968L154.837 705.971L154.646 707.929C154.645 707.93 154.645 707.93 154.645 707.93L154.646 707.93L154.646 707.931L154.652 707.932L154.681 707.941C154.708 707.948 154.749 707.961 154.805 707.978C154.918 708.011 155.089 708.064 155.32 708.138C155.783 708.286 156.484 708.52 157.429 708.858C159.318 709.534 162.179 710.629 166.043 712.295C167.695 713.008 168.865 713.526 169.808 713.943C170.291 714.157 170.715 714.345 171.114 714.519C171.059 714.896 170.998 715.284 170.93 715.683L170.93 715.684C170.794 716.484 170.637 717.255 170.469 717.989C169.346 718.287 167.447 718.739 165.267 719.098C163.47 719.393 161.466 719.72 159.91 719.974C159.132 720.101 158.467 720.209 157.996 720.286L157.445 720.375L157.299 720.399L157.261 720.405L157.251 720.407L157.249 720.407L157.248 720.407L157.248 720.407L157.408 721.394ZM157.408 721.394L157.248 720.407L157.393 722.394L157.408 721.394Z" fill="white" stroke="black" stroke-width="2"/>
<path d="M207.97 727.418L208.333 726.486L208.333 726.486L208.332 726.486L208.33 726.485L208.32 726.481L208.283 726.467L208.138 726.41C208.011 726.361 207.827 726.29 207.594 726.2C207.127 726.021 206.465 725.768 205.683 725.473C204.119 724.884 202.071 724.126 200.141 723.456C197.908 722.678 196.005 721.82 194.823 721.255C194.86 719.47 194.764 717.685 194.573 715.996C196.482 715.135 199.731 713.937 202.682 712.896C204.324 712.317 205.855 711.794 206.974 711.415C207.534 711.226 207.991 711.073 208.308 710.967C208.466 710.914 208.59 710.873 208.673 710.845L208.768 710.814L208.792 710.806L208.798 710.804L208.8 710.803L208.8 710.803L208.487 709.854M207.97 727.418C207.79 728.402 207.79 728.402 207.79 728.402L207.79 728.402L207.788 728.401L207.782 728.4L207.757 728.395L207.662 728.378C207.578 728.362 207.456 728.34 207.3 728.31C206.987 728.251 206.537 728.164 205.988 728.055C204.89 727.837 203.391 727.528 201.792 727.164C200.194 726.801 198.486 726.381 196.972 725.94C196.092 725.683 195.25 725.413 194.523 725.133C194.506 725.255 194.488 725.377 194.469 725.498C194.21 727.214 193.856 728.369 193.549 729.118C193.472 729.305 193.398 729.467 193.329 729.606C194.457 731.117 197.601 734.791 201.392 738.348C203.531 740.356 205.844 742.295 208.078 743.768C210.338 745.257 212.407 746.195 214.078 746.341C215.139 746.434 216.342 745.923 217.642 744.632C218.935 743.348 220.212 741.395 221.379 738.903C223.709 733.926 225.502 727.003 226.149 719.6C226.796 712.212 226.089 705.074 224.565 699.757C223.802 697.094 222.848 694.938 221.794 693.442C220.726 691.925 219.668 691.236 218.725 691.154C217.064 691.008 214.905 691.452 212.454 692.395C210.021 693.33 207.385 694.723 204.801 696.382C199.71 699.65 194.944 703.869 192.385 707.471C192.416 707.537 192.442 707.594 192.461 707.631L192.463 707.636C193.006 708.758 193.482 710.195 193.862 711.808C195.073 711.521 196.662 711.14 198.315 710.744C199.159 710.542 200.02 710.336 200.856 710.136C203.02 709.614 204.901 709.294 206.244 709.106C206.916 709.011 207.454 708.949 207.826 708.911C208.012 708.891 208.157 708.878 208.257 708.869C208.306 708.865 208.345 708.862 208.371 708.86L208.402 708.857L208.411 708.856L208.413 708.856L208.414 708.856L208.414 708.856C208.415 708.856 208.415 708.856 208.487 709.854M207.97 727.418L207.79 728.402L208.333 726.486L207.97 727.418ZM208.487 709.854L208.8 710.803L208.415 708.856L208.487 709.854Z" fill="white" stroke="black" stroke-width="2"/>
<path d="M118.418 884.623C118.497 884.83 118.643 885.13 118.91 885.51C119.579 886.463 121.016 887.926 124.079 889.662C126.89 891.255 129.162 891.948 130.704 892.246C131.476 892.395 132.067 892.446 132.454 892.461C132.561 892.465 132.653 892.466 132.728 892.466C132.821 892.384 132.95 892.261 133.111 892.085C133.532 891.622 134.171 890.792 134.938 889.385C136.418 886.667 137.511 883.524 138.184 880.571C138.86 877.607 139.095 874.909 138.911 873.079L118.418 884.623ZM118.418 884.623C118.654 884.367 118.987 883.985 119.414 883.451C120.302 882.338 121.596 880.561 123.26 877.867L118.418 884.623ZM128.055 867.773C128.029 867.85 128 867.932 127.968 868.02C127.759 868.608 127.445 869.445 127.028 870.45C126.195 872.458 124.941 875.148 123.261 877.867L128.055 867.773ZM128.055 867.773C128.196 867.776 128.357 867.782 128.536 867.792C129.268 867.834 130.29 867.949 131.436 868.243L128.055 867.773ZM136.793 870.193C135.46 869.392 133.612 868.802 131.436 868.243L136.793 870.193ZM136.793 870.193C138.093 870.973 138.788 871.879 138.911 873.078L136.793 870.193ZM127.402 867.781C127.402 867.781 127.402 867.781 127.402 867.781L127.402 867.781Z" fill="#ED7200" stroke="black" stroke-width="2"/>
<path d="M105.671 874.933C105.315 875.867 105.315 875.867 105.315 875.867L105.316 875.867L105.317 875.868L105.322 875.87L105.341 875.877L105.417 875.906C105.483 875.931 105.58 875.967 105.705 876.014C105.954 876.108 106.314 876.242 106.759 876.405C107.647 876.731 108.874 877.174 110.226 877.639C112.296 878.351 114.71 879.133 116.659 879.623C115.794 880.696 115.014 881.546 114.405 882.166C113.992 882.587 113.659 882.901 113.431 883.109C113.352 883.18 113.286 883.239 113.234 883.285C113.216 883.291 113.198 883.296 113.179 883.302C113.015 883.353 112.774 883.428 112.464 883.522C111.845 883.71 110.952 883.976 109.86 884.286C107.674 884.907 104.699 885.704 101.532 886.408C98.3602 887.114 95.0208 887.723 92.1008 887.975C90.641 888.101 89.3063 888.137 88.1616 888.056C87.0052 887.975 86.1057 887.78 85.4776 887.487C84.5104 887.036 83.7227 885.992 83.2411 884.223C82.762 882.464 82.6312 880.133 82.8662 877.391C83.3354 871.915 85.2429 865.023 88.3833 858.289C91.5176 851.567 95.6995 845.739 99.6796 841.897C101.673 839.974 103.578 838.584 105.24 837.816C106.925 837.037 108.187 836.97 109.047 837.37C110.501 838.049 112.157 839.515 113.858 841.585C115.544 843.636 117.211 846.202 118.707 848.974C121.675 854.476 123.893 860.645 124.297 865.044C124.274 865.134 124.241 865.259 124.197 865.416C124.104 865.755 123.963 866.239 123.777 866.808C123.526 867.578 123.195 868.494 122.789 869.419C121.346 867.836 119.321 865.958 116.546 863.965C114.092 862.201 112.116 861.107 110.737 860.45C110.049 860.121 109.51 859.902 109.136 859.764C108.949 859.694 108.803 859.645 108.701 859.612C108.65 859.595 108.61 859.583 108.58 859.574L108.545 859.564L108.533 859.561L108.529 859.559L108.528 859.559L108.527 859.559C108.526 859.559 108.526 859.559 108.261 860.523L108.526 859.559L107.677 861.333C107.677 861.334 107.677 861.334 107.676 861.334L107.677 861.334L107.677 861.335L107.682 861.338L107.707 861.356C107.729 861.373 107.764 861.398 107.811 861.433C107.905 861.504 108.048 861.612 108.24 861.761C108.625 862.058 109.205 862.518 109.978 863.159C111.523 864.442 113.84 866.45 116.905 869.34C118.215 870.575 119.139 871.462 119.884 872.178C120.265 872.544 120.6 872.866 120.916 873.166C120.735 873.501 120.545 873.845 120.344 874.197L120.344 874.198C119.943 874.903 119.531 875.573 119.122 876.206C117.964 876.101 116.023 875.876 113.85 875.466C112.058 875.128 110.061 874.749 108.511 874.455C107.736 874.308 107.073 874.181 106.603 874.092L106.055 873.988L105.909 873.96L105.871 873.953L105.862 873.951L105.859 873.951L105.859 873.95L105.859 873.95L105.671 874.933ZM105.671 874.933L105.859 873.95L105.315 875.867L105.671 874.933Z" fill="white" stroke="black" stroke-width="2"/>
<path d="M151.173 897.909L151.833 897.158L151.833 897.158L151.832 897.157L151.83 897.155L151.822 897.149L151.792 897.122L151.675 897.02C151.573 896.93 151.424 896.8 151.235 896.636C150.857 896.307 150.321 895.843 149.686 895.298C148.417 894.209 146.749 892.795 145.163 891.504M151.173 897.909L145.163 891.504M151.173 897.909C150.668 898.772 150.668 898.772 150.668 898.772L150.668 898.772L150.666 898.771L150.66 898.768L150.639 898.755L150.555 898.706C150.482 898.663 150.375 898.6 150.238 898.518C149.964 898.355 149.57 898.12 149.091 897.83C148.133 897.249 146.829 896.445 145.449 895.555C144.07 894.667 142.607 893.687 141.334 892.754C140.593 892.211 139.893 891.668 139.305 891.156C139.247 891.265 139.188 891.373 139.129 891.481M151.173 897.909L150.668 898.772L151.833 897.158L151.173 897.909ZM151.173 897.909L140.913 887.614M145.163 891.504C145.163 891.504 145.163 891.504 145.164 891.505L144.532 892.279L145.163 891.504ZM140.913 887.614C141.558 885.95 142.078 884.239 142.476 882.588C144.566 882.432 148.032 882.419 151.164 882.452C152.907 882.47 154.525 882.502 155.708 882.53C156.299 882.543 156.781 882.556 157.115 882.565C157.282 882.57 157.412 882.574 157.501 882.576L157.601 882.579L157.626 882.58L157.633 882.58L157.634 882.58L157.634 882.58L157.665 881.581M140.913 887.614C140.833 887.819 140.752 888.022 140.669 888.225L139.744 887.846L140.465 887.153C140.594 887.287 140.743 887.442 140.913 887.614ZM157.665 881.581L157.635 882.58L157.939 880.619L157.665 881.581ZM157.665 881.581C157.939 880.619 157.939 880.619 157.938 880.619L157.938 880.619L157.937 880.618L157.935 880.618L157.926 880.615L157.897 880.607C157.871 880.6 157.834 880.59 157.786 880.577C157.689 880.551 157.548 880.514 157.367 880.468C157.003 880.377 156.476 880.251 155.812 880.11C154.484 879.827 152.605 879.483 150.391 879.233M157.665 881.581C157.696 880.581 157.696 880.581 157.696 880.581L157.695 880.581L157.694 880.581L157.687 880.581L157.661 880.58L157.559 880.577C157.47 880.574 157.339 880.571 157.17 880.566C156.834 880.557 156.349 880.544 155.754 880.53C154.777 880.507 153.502 880.482 152.104 880.463C151.527 880.379 150.917 880.298 150.278 880.226M157.665 881.581C157.392 882.543 157.392 882.543 157.392 882.543L157.391 882.542L157.387 882.541L157.364 882.535C157.343 882.529 157.311 882.52 157.267 882.508C157.181 882.485 157.05 882.451 156.879 882.408C156.538 882.322 156.034 882.202 155.395 882.066C154.507 881.877 153.36 881.659 152.025 881.462C148.348 881.413 143.842 881.416 141.665 881.657L143.106 879.4M150.391 879.233C149.537 879.134 148.657 879.033 147.794 878.934C146.102 878.74 144.476 878.553 143.239 878.409M150.391 879.233C150.391 879.233 150.391 879.233 150.39 879.233L150.278 880.226M150.391 879.233C150.392 879.233 150.392 879.233 150.393 879.233L150.278 880.226M143.239 878.409C143.433 876.762 143.477 875.249 143.35 874.008L143.349 874.003C143.345 873.962 143.339 873.899 143.332 873.827C146.971 871.318 152.897 868.986 158.803 867.659C161.801 866.985 164.758 866.578 167.366 866.532C169.994 866.486 172.176 866.808 173.69 867.514C174.549 867.915 175.309 868.925 175.796 870.716C176.275 872.483 176.436 874.836 176.243 877.6C175.859 883.118 174.082 890.067 170.948 896.789C167.808 903.524 163.754 909.415 159.861 913.294C157.911 915.237 156.042 916.635 154.386 917.399C152.722 918.167 151.415 918.235 150.448 917.783C148.926 917.074 147.3 915.484 145.684 913.311C144.085 911.161 142.573 908.547 141.247 905.927C138.897 901.286 137.197 896.758 136.652 894.951M143.239 878.409C143.2 878.734 143.156 879.065 143.106 879.4M143.239 878.409C142.87 878.366 142.537 878.326 142.246 878.291C142.434 876.696 142.472 875.259 142.355 874.11L143.106 879.4M136.652 894.951C136.765 894.844 136.89 894.718 137.026 894.568C137.571 893.969 138.298 893.005 139.129 891.481M136.652 894.951C136.54 895.058 136.441 895.145 136.355 895.215C136.269 895.285 136.198 895.338 136.142 895.377C136.113 895.397 136.089 895.413 136.069 895.426C136.059 895.432 136.05 895.438 136.042 895.442L136.03 895.449L136.025 895.452L136.023 895.454L136.022 895.454C136.021 895.455 136.021 895.455 135.52 894.59M136.652 894.951C136.579 894.708 136.527 894.515 136.497 894.377L135.52 894.59M139.129 891.481C139.129 891.48 139.13 891.479 139.13 891.478L138.252 891M139.129 891.481C139.129 891.482 139.128 891.482 139.128 891.483L138.252 891M138.252 891C136.654 893.933 135.52 894.59 135.52 894.59M138.252 891L142.548 873.155C150.077 867.822 167.259 863.412 174.113 866.608C179.106 868.936 178.213 883.575 171.854 897.212C165.495 910.849 155.39 921.191 150.026 918.69C143.017 915.422 136.081 897.163 135.52 894.59M143.106 879.4C144.348 879.545 145.983 879.733 147.683 879.928C148.546 880.027 149.425 880.128 150.278 880.226" fill="white" stroke="black" stroke-width="2"/>
<path d="M255.948 806.551C256.152 806.637 256.469 806.741 256.928 806.813C258.078 806.993 260.129 806.977 263.506 805.979C266.604 805.063 268.681 803.91 269.966 803.008C270.61 802.557 271.057 802.167 271.337 801.898C271.414 801.824 271.479 801.759 271.531 801.705C271.537 801.581 271.538 801.403 271.523 801.165C271.482 800.54 271.329 799.505 270.849 797.976C269.922 795.023 268.421 792.053 266.765 789.518C265.102 786.972 263.325 784.929 261.88 783.79L255.948 806.551ZM255.948 806.551C255.928 806.203 255.885 805.698 255.797 805.02C255.613 803.608 255.234 801.443 254.452 798.374L255.948 806.551ZM250.523 787.914C250.559 787.986 250.598 788.064 250.64 788.148C250.917 788.707 251.302 789.514 251.735 790.512C252.599 792.506 253.664 795.277 254.452 798.374L250.523 787.914ZM250.523 787.914C250.622 787.814 250.738 787.702 250.87 787.581C251.409 787.083 252.201 786.428 253.209 785.808L250.523 787.914ZM258.332 783.309C256.83 783.711 255.123 784.631 253.209 785.808L258.332 783.309ZM258.332 783.309C259.797 782.916 260.932 783.045 261.879 783.79L258.332 783.309ZM250.074 788.389C250.074 788.389 250.074 788.389 250.074 788.389L250.074 788.389Z" fill="#31C00D" stroke="black" stroke-width="2"/>
<path d="M240.123 808.988C240.548 809.894 240.548 809.894 240.548 809.894L240.548 809.894L240.55 809.893L240.555 809.891L240.573 809.882L240.646 809.847C240.71 809.817 240.804 809.773 240.924 809.716C241.165 809.601 241.511 809.435 241.938 809.229C242.789 808.817 243.96 808.242 245.234 807.592C247.184 806.597 249.424 805.404 251.129 804.343C251.301 805.711 251.371 806.862 251.394 807.731C251.409 808.32 251.404 808.778 251.395 809.086C251.392 809.193 251.388 809.281 251.385 809.351C251.377 809.367 251.368 809.384 251.359 809.402C251.282 809.555 251.168 809.78 251.021 810.069C250.726 810.645 250.297 811.472 249.761 812.473C248.69 814.477 247.196 817.17 245.503 819.938C243.807 822.71 241.925 825.534 240.078 827.81C239.155 828.948 238.253 829.933 237.4 830.7C236.539 831.476 235.773 831.987 235.127 832.236C234.13 832.618 232.832 832.459 231.225 831.577C229.627 830.7 227.859 829.175 226.05 827.101C222.437 822.96 218.804 816.8 216.141 809.862C213.483 802.938 212.196 795.882 212.197 790.35C212.198 787.58 212.522 785.244 213.124 783.515C213.734 781.762 214.563 780.807 215.448 780.468C216.946 779.892 219.151 779.72 221.822 779.934C224.468 780.147 227.472 780.73 230.506 781.579C236.525 783.266 242.503 785.956 245.949 788.722C245.997 788.8 246.064 788.911 246.147 789.051C246.326 789.354 246.576 789.791 246.856 790.32C247.236 791.036 247.664 791.911 248.048 792.845C245.907 792.784 243.149 792.936 239.788 793.547C236.815 794.087 234.654 794.749 233.224 795.284C232.51 795.551 231.978 795.787 231.618 795.959C231.438 796.045 231.302 796.116 231.207 796.166C231.16 796.192 231.123 796.212 231.096 796.227L231.064 796.245L231.054 796.251L231.05 796.253L231.048 796.254L231.048 796.255C231.047 796.255 231.047 796.255 231.557 797.116L231.047 796.255L231.734 798.099C231.734 798.1 231.734 798.1 231.734 798.1L231.734 798.1L231.735 798.1L231.741 798.098L231.771 798.093C231.798 798.089 231.841 798.081 231.899 798.072C232.015 798.053 232.192 798.025 232.433 797.991C232.914 797.921 233.648 797.823 234.646 797.712C236.642 797.491 239.696 797.22 243.904 797.022C245.703 796.938 246.982 796.89 248.014 796.851C248.543 796.831 249.007 796.814 249.442 796.796C249.558 797.158 249.673 797.534 249.787 797.923L249.787 797.923C250.015 798.702 250.212 799.464 250.383 800.197C249.503 800.957 247.992 802.197 246.188 803.476C244.701 804.53 243.04 805.704 241.752 806.614C241.108 807.069 240.556 807.459 240.166 807.734L239.71 808.056L239.589 808.142L239.557 808.164L239.549 808.17L239.547 808.171L239.547 808.171L239.547 808.171L240.123 808.988ZM240.123 808.988L239.547 808.171L240.548 809.894L240.123 808.988Z" fill="white" stroke="black" stroke-width="2"/>
<path d="M288.259 792.218L288.177 791.222L288.177 791.222L288.176 791.222L288.173 791.222L288.163 791.223L288.123 791.226L287.968 791.239C287.833 791.25 287.636 791.267 287.386 791.289C286.888 791.332 286.181 791.395 285.348 791.474C283.683 791.63 281.507 791.848 279.477 792.092M288.259 792.218L279.477 792.092M288.259 792.218C288.529 793.181 288.529 793.181 288.529 793.181L288.529 793.181L288.527 793.182L288.521 793.183L288.497 793.19L288.403 793.216C288.321 793.239 288.201 793.272 288.048 793.314C287.74 793.398 287.298 793.518 286.756 793.661C285.672 793.946 284.188 794.326 282.59 794.701C280.993 795.075 279.272 795.447 277.716 795.715C276.811 795.871 275.934 795.997 275.157 796.064C275.195 796.182 275.232 796.299 275.269 796.416M288.259 792.218L288.529 793.181L288.177 791.222L288.259 792.218ZM288.259 792.218L273.726 792.447M279.477 792.092C279.477 792.092 279.477 792.092 279.478 792.092L279.596 793.084L279.477 792.092ZM273.726 792.447C272.978 790.827 272.108 789.265 271.196 787.831C272.537 786.22 274.935 783.717 277.134 781.487C278.357 780.246 279.505 779.104 280.346 778.273C280.767 777.857 281.111 777.519 281.35 777.285C281.469 777.168 281.562 777.077 281.625 777.015L281.697 776.945L281.715 776.927L281.72 776.923L281.721 776.922L281.721 776.922L281.023 776.205M273.726 792.447C273.818 792.646 273.908 792.846 273.997 793.047L273.081 793.449L273.084 792.449C273.269 792.45 273.485 792.449 273.726 792.447ZM281.023 776.205L281.721 776.922L280.521 775.34L281.023 776.205ZM281.023 776.205C280.521 775.34 280.521 775.34 280.521 775.34L280.521 775.341L280.52 775.341L280.518 775.342L280.51 775.347L280.484 775.362C280.461 775.376 280.428 775.396 280.385 775.421C280.299 775.473 280.175 775.548 280.016 775.647C279.698 775.845 279.241 776.137 278.678 776.517C277.552 777.276 275.999 778.388 274.281 779.807M281.023 776.205C280.326 775.489 280.326 775.489 280.326 775.489L280.325 775.489L280.324 775.49L280.319 775.495L280.301 775.513L280.228 775.584C280.164 775.647 280.07 775.739 279.95 775.856C279.709 776.092 279.363 776.432 278.94 776.85C278.245 777.538 277.341 778.436 276.356 779.429C275.895 779.785 275.413 780.169 274.917 780.578M281.023 776.205C281.525 777.07 281.525 777.07 281.526 777.07L281.525 777.07L281.521 777.073L281.5 777.085C281.481 777.096 281.453 777.113 281.414 777.136C281.337 777.182 281.222 777.252 281.073 777.345C280.773 777.531 280.337 777.81 279.796 778.175C279.043 778.683 278.089 779.356 277.02 780.18C274.431 782.791 271.303 786.034 269.964 787.768L269.341 785.163M274.281 779.807C273.617 780.353 272.933 780.916 272.263 781.467C270.948 782.55 269.684 783.59 268.72 784.379M274.281 779.807C274.281 779.807 274.281 779.807 274.281 779.807L274.917 780.578M274.281 779.807C274.282 779.806 274.282 779.806 274.282 779.806L274.917 780.578M268.72 784.379C267.671 783.096 266.612 782.013 265.631 781.242L265.627 781.239C265.595 781.214 265.546 781.175 265.489 781.129C266.212 776.769 268.651 770.886 271.799 765.716C273.397 763.091 275.158 760.682 276.937 758.774C278.73 756.851 280.477 755.505 282.036 754.907C282.922 754.567 284.176 754.722 285.803 755.616C287.407 756.499 289.211 758.018 291.065 760.076C294.767 764.186 298.532 770.291 301.19 777.215C303.853 784.152 305.275 791.161 305.361 796.656C305.405 799.408 305.111 801.724 304.511 803.445C303.907 805.176 303.048 806.163 302.052 806.545C300.484 807.147 298.211 807.213 295.525 806.866C292.869 806.522 289.937 805.794 287.132 804.928C282.161 803.394 277.722 801.472 276.045 800.609M268.72 784.379C268.928 784.633 269.135 784.895 269.341 785.163M268.72 784.379C268.433 784.614 268.173 784.827 267.946 785.012C266.929 783.768 265.922 782.742 265.014 782.029L269.341 785.163M276.045 800.609C276.046 800.454 276.041 800.276 276.028 800.074C275.976 799.266 275.788 798.073 275.269 796.416M276.045 800.609C276.044 800.764 276.037 800.896 276.028 801.006C276.019 801.116 276.007 801.204 275.996 801.272C275.991 801.306 275.985 801.334 275.981 801.358C275.978 801.369 275.976 801.38 275.974 801.389L275.971 801.402L275.969 801.408L275.969 801.41L275.968 801.412C275.968 801.412 275.968 801.413 274.998 801.172M276.045 800.609C275.819 800.493 275.643 800.396 275.523 800.321L274.998 801.172M275.269 796.416C275.268 796.415 275.268 796.414 275.268 796.414L274.313 796.713M275.269 796.416C275.269 796.417 275.269 796.418 275.269 796.419L274.313 796.713M274.313 796.713C275.313 799.9 274.998 801.172 274.998 801.172M274.313 796.713L264.461 781.226C265.855 772.106 274.618 756.683 281.678 753.973C286.822 751.998 296.732 762.809 302.124 776.857C307.516 790.904 307.936 805.358 302.41 807.479C295.191 810.25 277.238 802.556 274.998 801.172M269.341 785.163C270.308 784.371 271.579 783.325 272.9 782.238C273.571 781.686 274.254 781.124 274.917 780.578" fill="white" stroke="black" stroke-width="2"/>
<path d="M53.4932 797.519C53.7024 797.591 54.0259 797.672 54.4888 797.712C55.6487 797.812 57.6934 797.652 60.9921 796.421C64.0194 795.291 66.0103 793.996 67.2298 793.007C67.8403 792.512 68.2594 792.091 68.5196 791.804C68.5916 791.725 68.6514 791.655 68.6998 791.598C68.6968 791.474 68.6855 791.296 68.6536 791.06C68.5699 790.439 68.3448 789.417 67.7597 787.925C66.629 785.044 64.9241 782.186 63.095 779.772C61.2586 777.349 59.3431 775.435 57.8224 774.4L53.4932 797.519ZM53.4932 797.519C53.4482 797.173 53.3701 796.673 53.235 796.002C52.9535 794.607 52.4243 792.473 51.4304 789.466L53.4932 797.519ZM46.7804 779.305C46.8219 779.375 46.8663 779.45 46.9136 779.531C47.2293 780.069 47.6691 780.847 48.1708 781.813C49.1726 783.741 50.4276 786.431 51.4303 789.466L46.7804 779.305ZM46.7804 779.305C46.8731 779.199 46.9809 779.08 47.1036 778.949C47.6064 778.415 48.3515 777.706 49.3134 777.017L46.7804 779.305ZM54.25 774.167C52.7798 774.673 51.1403 775.709 49.3134 777.017L54.25 774.167ZM54.25 774.167C55.6834 773.673 56.8246 773.722 57.8216 774.399L54.25 774.167ZM46.3661 779.81C46.366 779.81 46.366 779.81 46.3661 779.81L46.3661 779.81Z" fill="#00CC83" stroke="black" stroke-width="2"/>
<path d="M37.8766 801.054C38.3632 801.928 38.3633 801.928 38.3634 801.928L38.3637 801.927L38.365 801.927L38.3697 801.924L38.388 801.914L38.4583 801.875C38.5199 801.84 38.6103 801.789 38.7263 801.724C38.9583 801.593 39.2925 801.403 39.7032 801.168C40.5242 800.697 41.6517 800.042 42.8774 799.304C44.7532 798.176 46.9041 796.83 48.5318 795.652C48.7985 797.005 48.9481 798.148 49.0318 799.013C49.0886 799.6 49.1151 800.058 49.1274 800.365C49.1317 800.472 49.1343 800.56 49.1358 800.63C49.1289 800.647 49.1215 800.664 49.1136 800.683C49.0477 800.841 48.9498 801.074 48.8228 801.371C48.5688 801.967 48.1983 802.822 47.734 803.858C46.805 805.931 45.5025 808.723 44.0067 811.602C42.5086 814.485 40.8281 817.434 39.1445 819.833C38.3029 821.033 37.472 822.078 36.6748 822.903C35.8694 823.737 35.1416 824.301 34.5136 824.593C33.5464 825.044 32.2399 824.976 30.5757 824.209C28.9201 823.445 27.0505 822.047 25.1009 820.104C21.2079 816.225 17.1542 810.333 14.0138 803.599C10.8794 796.877 9.10298 789.928 8.71861 784.409C8.52612 781.646 8.6865 779.293 9.16612 777.526C9.65231 775.735 10.4124 774.725 11.2718 774.324C12.7261 773.646 14.9138 773.32 17.593 773.347C20.2477 773.375 23.285 773.747 26.3703 774.383C32.4926 775.645 38.6436 777.912 42.2739 780.43C42.3273 780.505 42.4024 780.611 42.4946 780.745C42.6944 781.035 42.9743 781.453 43.2909 781.962C43.7192 782.65 44.208 783.492 44.6558 784.397C42.516 784.485 39.7751 784.829 36.4653 785.674C33.5364 786.42 31.4277 787.231 30.0385 787.864C29.3441 788.181 28.8298 788.453 28.4832 788.65C28.3099 788.748 28.1786 788.828 28.0876 788.885C28.0421 788.914 28.0067 788.937 27.9812 788.953L27.9504 788.974L27.9405 788.981L27.9369 788.983L27.9355 788.984L27.9348 788.985C27.9345 788.985 27.9343 788.985 28.5024 789.808L27.9343 788.985L28.7481 790.776C28.7484 790.777 28.7484 790.777 28.7484 790.777L28.7486 790.777L28.7492 790.777L28.7554 790.775L28.7846 790.768C28.8115 790.762 28.8534 790.752 28.9106 790.738C29.0248 790.711 29.2 790.671 29.4375 790.619C29.9127 790.516 30.6378 790.368 31.6257 790.188C33.6017 789.828 36.6293 789.344 40.8131 788.853C42.6017 788.644 43.8747 788.507 44.9018 788.396C45.4277 788.339 45.8891 788.29 46.3222 788.241C46.4628 788.595 46.6042 788.961 46.7447 789.341L46.745 789.342C47.0268 790.102 47.2763 790.849 47.4979 791.569C46.6728 792.388 45.2526 793.731 43.5422 795.132C42.1318 796.287 40.5574 797.574 39.3355 798.572C38.7245 799.071 38.2017 799.498 37.8317 799.8L37.3992 800.153L37.2841 800.247L37.2544 800.271L37.2469 800.277L37.245 800.279L37.2445 800.279L37.2444 800.279L37.8766 801.054ZM37.8766 801.054L37.2444 800.279L38.3632 801.928L37.8766 801.054Z" fill="white" stroke="black" stroke-width="2"/>
<path d="M84.7253 780.967L84.5738 779.978L84.5736 779.979L84.573 779.979L84.5703 779.979L84.5601 779.981L84.5204 779.987L84.3668 780.01C84.2327 780.031 84.037 780.062 83.7898 780.101C83.2955 780.179 82.5949 780.291 81.7692 780.427C80.1191 780.699 77.9642 781.068 75.9556 781.454M84.7253 780.967L75.9556 781.454M84.7253 780.967C85.0622 781.908 85.0621 781.909 85.062 781.909L85.0615 781.909L85.0599 781.909L85.0537 781.912L85.03 781.92L84.9385 781.952C84.8585 781.981 84.7411 782.022 84.5907 782.075C84.2899 782.18 83.8568 782.33 83.3261 782.511C82.2651 782.871 80.8114 783.354 79.2428 783.839C77.676 784.324 75.985 784.815 74.4518 785.191C73.5596 785.409 72.6936 785.596 71.9238 785.717C71.9699 785.832 72.0151 785.946 72.0592 786.061M84.7253 780.967L85.0622 781.908L84.5739 779.978L84.7253 780.967ZM84.7253 780.967L70.2439 782.209M75.9556 781.454C75.9559 781.454 75.9562 781.454 75.9565 781.454L76.144 782.435L75.9556 781.454ZM70.2439 782.209C69.384 780.645 68.4075 779.147 67.3982 777.781C68.6227 776.08 70.8405 773.416 72.8783 771.038C74.0127 769.715 75.0776 768.496 75.859 767.607C76.2496 767.163 76.5692 766.802 76.791 766.552C76.9019 766.427 76.9883 766.33 77.047 766.264L77.1137 766.189L77.1306 766.17L77.1348 766.165L77.1358 766.164L77.136 766.164L76.3902 765.498M70.2439 782.209C70.3495 782.401 70.4534 782.595 70.5554 782.789L69.6702 783.254L69.6029 782.256C69.7882 782.244 70.0029 782.228 70.2439 782.209ZM76.3902 765.498L77.1361 766.164L75.8291 764.67L76.3902 765.498ZM76.3902 765.498C75.8291 764.67 75.829 764.67 75.8289 764.67L75.8286 764.67L75.8279 764.671L75.8257 764.672L75.8185 764.677L75.793 764.695C75.7711 764.71 75.7394 764.732 75.6985 764.76C75.6167 764.818 75.4979 764.902 75.3461 765.011C75.0426 765.231 74.6071 765.554 74.0718 765.972C73.0019 766.808 71.5303 768.026 69.916 769.561M76.3902 765.498C75.6443 764.832 75.6443 764.832 75.6442 764.832L75.6439 764.832L75.6428 764.833L75.6383 764.838L75.6209 764.858L75.5531 764.934C75.4937 765.001 75.4065 765.099 75.2948 765.225C75.0714 765.477 74.7499 765.84 74.3572 766.286C73.7113 767.021 72.8721 767.98 71.9593 769.039C71.5241 769.427 71.0702 769.843 70.6043 770.286M76.3902 765.498C76.9513 766.325 76.9514 766.325 76.9515 766.325L76.9509 766.326L76.9467 766.329L76.9272 766.342C76.9093 766.354 76.8818 766.373 76.8451 766.399C76.7716 766.45 76.6616 766.528 76.5188 766.632C76.2333 766.838 75.8174 767.147 75.3029 767.548C74.5872 768.107 73.6824 768.846 72.6735 769.742C70.273 772.528 67.3789 775.981 66.1643 777.803L65.3611 775.249M69.916 769.561C69.2914 770.152 68.6485 770.761 68.0181 771.358C66.7817 772.529 65.5936 773.655 64.6871 774.51M69.916 769.561C69.9157 769.561 69.9155 769.561 69.9152 769.561L70.6043 770.286M69.916 769.561C69.9163 769.56 69.9166 769.56 69.9168 769.56L70.6043 770.286M64.6871 774.51C63.5508 773.303 62.4193 772.297 61.3871 771.596L61.383 771.594C61.3486 771.571 61.297 771.535 61.2374 771.494C61.6546 767.093 63.6773 761.055 66.4566 755.677C67.8677 752.947 69.4565 750.421 71.0979 748.394C72.7519 746.351 74.4016 744.886 75.9151 744.18C76.7745 743.78 78.0368 743.847 79.7216 744.626C81.3836 745.394 83.289 746.784 85.2822 748.707C89.2623 752.549 93.4441 758.377 96.5785 765.098C99.7188 771.833 101.626 778.725 102.096 784.201C102.331 786.943 102.2 789.274 101.721 791.033C101.239 792.802 100.451 793.846 99.4841 794.297C97.9619 795.007 95.6991 795.231 92.9951 795.072C90.3213 794.915 87.3462 794.393 84.4875 793.725C79.4216 792.541 74.8595 790.933 73.1259 790.189M64.6871 774.51C64.9118 774.749 65.1367 774.996 65.3611 775.249M64.6871 774.51C64.4174 774.765 64.1727 774.995 63.959 775.196C62.8576 774.026 61.7814 773.072 60.8256 772.424L65.3611 775.249M73.1259 790.189C73.1162 790.034 73.0994 789.857 73.0723 789.656C72.9641 788.854 72.6928 787.677 72.0592 786.061M73.1259 790.189C73.1357 790.344 73.1383 790.476 73.1369 790.587C73.1355 790.697 73.1301 790.786 73.1238 790.854C73.1207 790.888 73.1174 790.917 73.1142 790.941C73.1127 790.953 73.1111 790.963 73.1097 790.972L73.1076 790.986L73.1067 790.991L73.1062 790.994L73.106 790.995C73.1058 790.996 73.1057 790.997 72.1207 790.824M73.1259 790.189C72.8927 790.089 72.7107 790.005 72.5855 789.939L72.1207 790.824M72.0592 786.061C72.0589 786.06 72.0586 786.059 72.0582 786.058L71.1272 786.423M72.0592 786.061C72.0596 786.062 72.0599 786.063 72.0603 786.064L71.1272 786.423M71.1272 786.423C72.3467 789.533 72.1207 790.824 72.1207 790.824M71.1272 786.423L60.2186 771.662C60.9726 762.466 68.639 746.47 75.4925 743.274C80.4862 740.945 91.1257 751.039 97.4848 764.676C103.844 778.313 105.271 792.702 99.9067 795.203C92.8983 798.472 74.4525 792.048 72.1207 790.824M65.3611 775.249C66.2707 774.391 67.4655 773.259 68.7079 772.082C69.3381 771.485 69.9806 770.876 70.6043 770.286" fill="white" stroke="black" stroke-width="2"/>
<defs>
<radialGradient id="paint0_diamond_2_2" cx="0" cy="0" r="1" gradientUnits="userSpaceOnUse" gradientTransform="translate(960 540) rotate(90) scale(540 960)">
<stop offset="0.0001" stop-color="#E6A8D7"/>
</radialGradient>
</defs>
</svg>
