<svg width="1920" height="1080" viewBox="0 0 1920 1080" fill="none" xmlns="http://www.w3.org/2000/svg">
<rect width="1920" height="1080" fill="url(#paint0_diamond_2_2)"/>
<path d="M1767.96 120.326C1767.96 120.326 1769.7 119.546 1772.21 119.299C1776.69 118.859 1780.47 118.924 1781.88 121.845C1783.6 125.425 1784.76 132.777 1783.81 139.112C1783.31 142.414 1782.47 143.42 1782.47 143.42C1782.47 143.42 1779.13 145.03 1772.55 143.924C1765.42 142.724 1764.55 140.225 1764.55 140.225C1764.55 140.225 1765.67 138.065 1766.94 131.931C1768.21 125.807 1767.96 120.326 1767.96 120.326Z" fill="#B70000"/>
<path d="M1758.43 134.085C1761.08 133.649 1763.32 133.077 1764.31 132.797C1764.53 131.875 1764.74 130.888 1764.92 129.852C1765.03 129.167 1765.13 128.517 1765.21 127.903C1763.83 127.316 1762.5 126.696 1759.44 125.377C1751.67 122.028 1747.92 120.968 1747.92 120.968C1747.92 120.968 1750.9 120.726 1756.6 122.331C1760.66 123.473 1763.54 124.84 1765.44 125.975C1765.87 122.813 1765.49 119.461 1765.49 119.461C1761.63 111.068 1748.1 98.5839 1740.83 97.9478C1735.35 97.4681 1728.81 110.592 1727.5 125.582C1726.19 140.571 1729.76 154.58 1735.65 155.096C1742.55 155.7 1761.13 141.324 1761.13 141.324C1761.13 141.324 1762.54 138.933 1763.76 134.843C1759.78 135.537 1750.41 135.394 1750.41 135.394C1750.41 135.394 1754.83 134.675 1758.43 134.085Z" fill="black"/>
<path d="M1811.81 104.158C1804.29 103.499 1789.66 113.521 1784.42 121.108L1784.23 121.366C1784.23 121.366 1784.47 121.89 1784.56 122.071C1785.17 123.322 1785.7 125.042 1786.1 127.015C1787.83 126.609 1791.12 125.818 1794.09 125.108C1798.34 124.081 1801.49 123.854 1801.49 123.854C1801.49 123.854 1790.12 127.604 1786.49 129.399C1786.76 131.452 1786.89 133.676 1786.8 135.872C1787.89 136.406 1790.11 137.46 1792.81 138.4C1796.65 139.732 1800.97 141.418 1800.97 141.418C1800.97 141.418 1789.85 139.393 1786.69 137.663C1786.64 138.235 1786.57 138.795 1786.48 139.346C1785.98 142.648 1785.14 143.654 1785.14 143.654C1786.55 145.88 1799.3 160.664 1806.99 161.337C1812.88 161.852 1818.83 148.677 1820.15 133.687C1821.46 118.698 1817.3 104.637 1811.81 104.158Z" fill="black"/>
<path d="M1720.33 280.783C1720.33 280.783 1722.24 280.648 1724.68 281.275C1729.05 282.394 1732.58 283.749 1732.91 286.978C1733.3 290.932 1731.88 298.237 1728.82 303.864C1727.22 306.797 1726.08 307.453 1726.08 307.453C1726.08 307.453 1722.4 307.825 1716.59 304.532C1710.28 300.961 1710.32 298.316 1710.32 298.316C1710.32 298.316 1712.12 296.67 1715.41 291.341C1718.7 286.021 1720.33 280.783 1720.33 280.783Z" fill="#ED7200"/>
<path d="M1706.66 290.449C1709.3 290.946 1711.61 291.176 1712.63 291.252C1713.16 290.462 1713.69 289.606 1714.21 288.693C1714.56 288.089 1714.87 287.511 1715.16 286.962C1714.06 285.939 1713.02 284.898 1710.59 282.612C1704.43 276.805 1701.26 274.523 1701.26 274.523C1701.26 274.523 1704.15 275.317 1708.96 278.777C1712.39 281.242 1714.64 283.514 1716.03 285.228C1717.52 282.407 1718.31 279.125 1718.31 279.125C1717.55 269.917 1709.09 253.552 1702.47 250.464C1697.48 248.136 1686.84 258.229 1680.48 271.866C1674.12 285.503 1672.69 299.892 1678.06 302.394C1684.34 305.324 1706.73 298.177 1706.73 298.177C1706.73 298.177 1708.87 296.413 1711.41 292.986C1707.44 292.277 1698.67 288.933 1698.67 288.933C1698.67 288.933 1703.08 289.773 1706.66 290.449Z" fill="black"/>
<path d="M1767.11 280.608C1760.26 277.412 1743.08 281.822 1735.55 287.155L1735.29 287.334C1735.29 287.334 1735.33 287.909 1735.35 288.11C1735.5 289.492 1735.41 291.292 1735.11 293.283C1736.88 293.494 1740.24 293.877 1743.28 294.226C1747.63 294.718 1750.67 295.581 1750.67 295.581C1750.67 295.581 1738.69 295.212 1734.67 295.657C1734.22 297.678 1733.58 299.813 1732.74 301.846C1733.58 302.72 1735.31 304.472 1737.53 306.28C1740.69 308.846 1744.17 311.909 1744.17 311.909C1744.17 311.909 1734.4 306.198 1732.02 303.488C1731.78 304.009 1731.52 304.512 1731.25 305C1729.65 307.933 1728.52 308.59 1728.52 308.59C1729.08 311.163 1736.02 329.422 1743.03 332.69C1748.39 335.191 1758.5 324.849 1764.85 311.212C1771.21 297.575 1772.11 282.936 1767.11 280.608Z" fill="black"/>
<path d="M1842.31 201.745C1842.31 201.745 1843.54 200.279 1845.68 198.956C1849.52 196.596 1852.95 194.998 1855.5 197.004C1858.62 199.464 1862.88 205.564 1864.8 211.676C1865.8 214.863 1865.49 216.136 1865.49 216.136C1865.49 216.136 1863.2 219.045 1856.79 220.938C1849.84 222.99 1847.97 221.125 1847.97 221.125C1847.97 221.125 1848.03 218.691 1846.48 212.621C1844.94 206.56 1842.31 201.745 1842.31 201.745Z" fill="#31C00D"/>
<path d="M1839.77 218.292C1841.96 216.738 1843.72 215.241 1844.49 214.557C1844.29 213.63 1844.04 212.651 1843.75 211.642C1843.55 210.975 1843.35 210.35 1843.16 209.761C1841.66 209.838 1840.19 209.867 1836.86 210.023C1828.4 210.421 1824.56 211.116 1824.56 211.116C1824.56 211.116 1827.14 209.589 1832.97 208.531C1837.12 207.775 1840.32 207.74 1842.51 207.929C1841.52 204.895 1839.71 202.05 1839.71 202.05C1832.56 196.2 1814.91 190.916 1808.09 193.534C1802.95 195.509 1802.82 210.173 1808.21 224.221C1813.6 238.268 1822.96 249.29 1828.48 247.169C1834.96 244.684 1845.37 223.614 1845.37 223.614C1845.37 223.614 1845.59 220.847 1844.89 216.637C1841.62 219.006 1833.12 222.988 1833.12 222.988C1833.12 222.988 1836.79 220.4 1839.77 218.292Z" fill="black"/>
<path d="M1874.68 167.973C1867.62 170.683 1858.85 186.106 1857.46 195.226L1857.41 195.539C1857.41 195.539 1857.85 195.905 1858.01 196.029C1859.11 196.887 1860.34 198.198 1861.57 199.797C1862.95 198.672 1865.56 196.518 1867.92 194.578C1871.29 191.789 1874.02 190.205 1874.02 190.205C1874.02 190.205 1865.44 198.564 1862.96 201.768C1864.11 203.495 1865.2 205.437 1866.08 207.449C1867.29 207.452 1869.76 207.424 1872.6 207.085C1876.63 206.599 1881.26 206.218 1881.26 206.218C1881.26 206.218 1870.36 209.278 1866.76 209.111C1866.97 209.646 1867.15 210.18 1867.31 210.713C1868.31 213.9 1868 215.172 1868 215.172C1870.24 216.556 1888.19 224.25 1895.41 221.479C1900.94 219.358 1900.52 204.904 1895.12 190.857C1889.73 176.809 1879.82 165.998 1874.68 167.973Z" fill="black"/>
<path d="M1638.56 193.222C1638.56 193.222 1639.68 191.673 1641.73 190.204C1645.39 187.582 1648.7 185.749 1651.38 187.572C1654.67 189.809 1659.35 195.596 1661.69 201.56C1662.91 204.669 1662.68 205.961 1662.68 205.961C1662.68 205.961 1660.6 209.023 1654.34 211.358C1647.56 213.889 1645.55 212.16 1645.55 212.16C1645.55 212.16 1645.45 209.727 1643.48 203.78C1641.52 197.841 1638.56 193.222 1638.56 193.222Z" fill="#00CC83"/>
<path d="M1637.18 209.906C1639.25 208.203 1640.91 206.586 1641.63 205.85C1641.36 204.94 1641.05 203.98 1640.68 202.994C1640.44 202.343 1640.2 201.732 1639.96 201.159C1638.48 201.34 1637.01 201.472 1633.7 201.86C1625.29 202.846 1621.5 203.808 1621.5 203.808C1621.5 203.808 1623.97 202.105 1629.71 200.643C1633.81 199.598 1636.99 199.341 1639.19 199.377C1637.99 196.419 1635.99 193.708 1635.99 193.708C1628.44 188.37 1610.47 184.33 1603.85 187.418C1598.86 189.746 1599.75 204.385 1606.11 218.022C1612.47 231.659 1622.57 242.001 1627.94 239.5C1634.22 236.569 1643.14 214.824 1643.14 214.824C1643.14 214.824 1643.16 212.048 1642.17 207.897C1639.07 210.489 1630.88 215.054 1630.88 215.054C1630.88 215.054 1634.35 212.216 1637.18 209.906Z" fill="black"/>
<path d="M1668.49 157.274C1661.64 160.47 1653.97 176.466 1653.22 185.662L1653.19 185.978C1653.19 185.978 1653.66 186.311 1653.83 186.424C1654.98 187.204 1656.3 188.426 1657.63 189.935C1658.93 188.717 1661.39 186.386 1663.6 184.286C1666.78 181.269 1669.39 179.498 1669.39 179.498C1669.39 179.498 1661.41 188.435 1659.16 191.803C1660.42 193.447 1661.65 195.309 1662.67 197.254C1663.88 197.172 1666.33 196.973 1669.14 196.436C1673.14 195.669 1677.73 194.967 1677.73 194.967C1677.73 194.967 1667.07 198.779 1663.46 198.864C1663.71 199.384 1663.93 199.904 1664.13 200.423C1665.35 203.533 1665.12 204.824 1665.12 204.824C1667.45 206.048 1685.9 212.472 1692.91 209.203C1698.27 206.702 1696.84 192.313 1690.48 178.676C1684.13 165.039 1673.49 154.945 1668.49 157.274Z" fill="black"/>
<path d="M174.959 706.326C174.959 706.326 176.704 705.546 179.212 705.299C183.69 704.859 187.466 704.924 188.877 707.845C190.603 711.425 191.76 718.777 190.805 725.112C190.307 728.414 189.466 729.42 189.466 729.42C189.466 729.42 186.134 731.03 179.553 729.924C172.419 728.724 171.551 726.225 171.551 726.225C171.551 726.225 172.674 724.065 173.944 717.931C175.213 711.807 174.959 706.326 174.959 706.326Z" fill="#B70000"/>
<path d="M165.43 720.085C168.078 719.649 170.319 719.077 171.305 718.797C171.529 717.875 171.739 716.888 171.916 715.852C172.033 715.167 172.128 714.517 172.21 713.903C170.832 713.316 169.496 712.696 166.439 711.377C158.673 708.028 154.917 706.968 154.917 706.968C154.917 706.968 157.901 706.726 163.6 708.331C167.663 709.473 170.544 710.84 172.436 711.975C172.874 708.813 172.491 705.461 172.491 705.461C168.634 697.068 155.104 684.584 147.834 683.948C142.351 683.468 135.811 696.592 134.499 711.582C133.188 726.571 136.763 740.58 142.653 741.096C149.554 741.7 168.13 727.324 168.13 727.324C168.13 727.324 169.54 724.933 170.755 720.843C166.779 721.537 157.408 721.394 157.408 721.394C157.408 721.394 161.834 720.675 165.43 720.085Z" fill="black"/>
<path d="M218.812 690.158C211.287 689.499 196.664 699.521 191.418 707.108L191.234 707.366C191.234 707.366 191.474 707.89 191.563 708.071C192.168 709.322 192.703 711.042 193.102 713.015C194.833 712.609 198.122 711.818 201.09 711.108C205.342 710.081 208.487 709.854 208.487 709.854C208.487 709.854 197.118 713.604 193.494 715.399C193.762 717.452 193.891 719.676 193.804 721.872C194.891 722.406 197.113 723.46 199.813 724.4C203.649 725.732 207.97 727.418 207.97 727.418C207.97 727.418 196.849 725.393 193.685 723.663C193.635 724.235 193.567 724.795 193.481 725.346C192.982 728.648 192.142 729.654 192.142 729.654C193.547 731.88 206.295 746.664 213.991 747.337C219.88 747.852 225.834 734.677 227.145 719.687C228.457 704.698 224.295 690.637 218.812 690.158Z" fill="black"/>
<path d="M127.333 866.783C127.333 866.783 129.241 866.648 131.685 867.275C136.047 868.394 139.577 869.749 139.906 872.978C140.305 876.932 138.88 884.237 135.816 889.864C134.217 892.796 133.083 893.453 133.083 893.453C133.083 893.453 129.398 893.825 123.586 890.532C117.285 886.961 117.323 884.316 117.323 884.316C117.323 884.316 119.118 882.67 122.41 877.341C125.698 872.021 127.333 866.783 127.333 866.783Z" fill="#ED7200"/>
<path d="M113.664 876.449C116.305 876.946 118.608 877.176 119.632 877.252C120.157 876.462 120.693 875.606 121.213 874.693C121.557 874.089 121.869 873.511 122.156 872.962C121.061 871.939 120.016 870.898 117.591 868.612C111.431 862.805 108.261 860.523 108.261 860.523C108.261 860.523 111.15 861.317 115.962 864.777C119.394 867.242 121.636 869.514 123.028 871.228C124.522 868.407 125.308 865.125 125.308 865.125C124.549 855.917 116.09 839.552 109.469 836.464C104.476 834.136 93.836 844.229 87.477 857.866C81.1179 871.503 79.691 885.892 85.055 888.394C91.3403 891.324 113.729 884.177 113.729 884.177C113.729 884.177 115.873 882.413 118.415 878.986C114.437 878.277 105.671 874.933 105.671 874.933C105.671 874.933 110.081 875.773 113.664 876.449Z" fill="black"/>
<path d="M174.113 866.608C167.259 863.412 150.077 867.822 142.548 873.155L142.287 873.334C142.287 873.334 142.333 873.909 142.355 874.11C142.496 875.492 142.412 877.292 142.112 879.283C143.88 879.494 147.244 879.877 150.278 880.226C154.63 880.718 157.665 881.581 157.665 881.581C157.665 881.581 145.689 881.212 141.665 881.657C141.216 883.678 140.577 885.813 139.744 887.846C140.584 888.72 142.314 890.472 144.532 892.28C147.685 894.846 151.173 897.909 151.173 897.909C151.173 897.909 141.404 892.198 139.02 889.488C138.777 890.008 138.522 890.512 138.252 891C136.654 893.933 135.52 894.59 135.52 894.59C136.081 897.163 143.017 915.422 150.026 918.69C155.39 921.191 165.495 910.849 171.854 897.212C178.213 883.575 179.106 868.936 174.113 866.608Z" fill="black"/>
<path d="M249.309 787.745C249.309 787.745 250.537 786.279 252.685 784.956C256.521 782.596 259.947 780.998 262.498 783.004C265.62 785.464 269.885 791.564 271.804 797.676C272.803 800.863 272.488 802.136 272.488 802.136C272.488 802.136 270.195 805.045 263.789 806.938C256.843 808.99 254.967 807.125 254.967 807.125C254.967 807.125 255.03 804.691 253.483 798.621C251.94 792.559 249.309 787.745 249.309 787.745Z" fill="#31C00D"/>
<path d="M246.767 804.292C248.958 802.738 250.724 801.241 251.489 800.557C251.286 799.63 251.042 798.651 250.747 797.642C250.552 796.975 250.352 796.35 250.157 795.761C248.66 795.838 247.186 795.867 243.857 796.023C235.401 796.421 231.557 797.116 231.557 797.116C231.557 797.116 234.135 795.589 239.967 794.531C244.123 793.775 247.315 793.74 249.515 793.929C248.523 790.895 246.709 788.05 246.709 788.05C239.558 782.2 221.91 776.916 215.09 779.534C209.946 781.509 209.815 796.173 215.208 810.221C220.6 824.268 229.959 835.29 235.485 833.169C241.959 830.684 252.371 809.614 252.371 809.614C252.371 809.614 252.591 806.847 251.891 802.637C248.618 805.006 240.123 808.988 240.123 808.988C240.123 808.988 243.79 806.4 246.767 804.292Z" fill="black"/>
<path d="M281.678 753.973C274.618 756.683 265.855 772.106 264.461 781.226L264.408 781.539C264.408 781.539 264.854 781.905 265.014 782.029C266.106 782.887 267.342 784.198 268.566 785.797C269.946 784.672 272.558 782.518 274.917 780.578C278.294 777.789 281.023 776.205 281.023 776.205C281.023 776.205 272.438 784.564 269.964 787.768C271.105 789.495 272.197 791.437 273.081 793.449C274.293 793.452 276.755 793.424 279.596 793.085C283.633 792.599 288.259 792.218 288.259 792.218C288.259 792.218 277.365 795.278 273.76 795.111C273.965 795.646 274.15 796.18 274.313 796.713C275.313 799.9 274.998 801.172 274.998 801.172C277.238 802.556 295.191 810.25 302.41 807.479C307.936 805.358 307.516 790.904 302.124 776.857C296.732 762.809 286.822 751.998 281.678 753.973Z" fill="black"/>
<path d="M45.5576 779.222C45.5576 779.222 46.6803 777.673 48.7312 776.204C52.3931 773.582 55.6996 771.749 58.3842 773.572C61.6703 775.809 66.35 781.596 68.6906 787.56C69.9101 790.669 69.6841 791.961 69.6841 791.961C69.6841 791.961 67.6004 795.023 61.3416 797.358C54.5556 799.889 52.554 798.16 52.554 798.16C52.554 798.16 52.447 795.727 50.4808 789.78C48.5186 783.841 45.5576 779.222 45.5576 779.222Z" fill="#00CC83"/>
<path d="M44.176 795.906C46.2541 794.203 47.911 792.586 48.6267 791.85C48.3593 790.94 48.0478 789.98 47.6827 788.994C47.4418 788.343 47.1991 787.732 46.9631 787.159C45.4753 787.34 44.0066 787.472 40.6968 787.86C32.2888 788.846 28.5024 789.808 28.5024 789.808C28.5024 789.808 30.9684 788.105 36.7121 786.643C40.8056 785.598 43.9874 785.341 46.1949 785.377C44.994 782.419 42.9854 779.708 42.9854 779.708C35.4442 774.37 17.4702 770.33 10.8492 773.418C5.85539 775.746 6.74845 790.385 13.1075 804.022C19.4666 817.659 29.5722 828.001 34.9362 825.5C41.2215 822.569 50.138 800.824 50.138 800.824C50.138 800.824 50.1643 798.048 49.1724 793.897C46.0725 796.489 37.8766 801.054 37.8766 801.054C37.8766 801.054 41.3542 798.216 44.176 795.906Z" fill="black"/>
<path d="M75.4925 743.274C68.639 746.47 60.9726 762.466 60.2186 771.662L60.1877 771.978C60.1877 771.978 60.6578 772.311 60.8256 772.424C61.9756 773.204 63.2999 774.426 64.6326 775.935C65.9304 774.717 68.3863 772.386 70.6043 770.286C73.7779 767.269 76.3902 765.498 76.3902 765.498C76.3902 765.498 68.4091 774.435 66.1643 777.803C67.4235 779.447 68.6478 781.309 69.6702 783.254C70.8795 783.172 73.3336 782.973 76.1441 782.436C80.1368 781.669 84.7253 780.967 84.7253 780.967C84.7253 780.967 74.0712 784.779 70.4629 784.864C70.7054 785.384 70.9269 785.904 71.1272 786.423C72.3467 789.533 72.1207 790.824 72.1207 790.824C74.4525 792.048 92.8983 798.472 99.9067 795.203C105.271 792.702 103.844 778.313 97.4848 764.676C91.1257 751.039 80.4862 740.945 75.4925 743.274Z" fill="black"/>
<defs>
<radialGradient id="paint0_diamond_2_2" cx="0" cy="0" r="1" gradientUnits="userSpaceOnUse" gradientTransform="translate(960 540) rotate(90) scale(540 960)">
<stop offset="0.0001" stop-color="#E6A8D7"/>
</radialGradient>
</defs>
</svg>
