<?xml version="1.0" encoding="UTF-8"?>
<!DOCTYPE svg PUBLIC "-//W3C//DTD SVG 1.1//EN" "http://www.w3.org/Graphics/SVG/1.1/DTD/svg11.dtd">
<svg xmlns="http://www.w3.org/2000/svg" version="1.1" width="322px" height="215px" style="shape-rendering:geometricPrecision; text-rendering:geometricPrecision; image-rendering:optimizeQuality; fill-rule:evenodd; clip-rule:evenodd" xmlns:xlink="http://www.w3.org/1999/xlink">
<g><path style="opacity:0.994" fill="#e9e1e2" d="M 205.5,42.5 C 218.47,47.6466 230.47,54.3132 241.5,62.5C 241.611,63.1174 241.944,63.6174 242.5,64C 253.828,64.4999 265.162,64.6665 276.5,64.5C 279.831,64.0181 282.497,65.0181 284.5,67.5C 269.869,66.5497 255.202,66.2164 240.5,66.5C 240.719,65.325 240.386,64.325 239.5,63.5C 237.206,62.2943 234.873,61.2943 232.5,60.5C 232.67,59.1779 232.337,58.0113 231.5,57C 228.607,56.4993 226.107,55.3326 224,53.5C 222.62,56.0578 221.12,56.0578 219.5,53.5C 217.929,57.3504 219.262,59.6838 223.5,60.5C 224.425,61.3569 225.092,62.3569 225.5,63.5C 224.305,63.6775 223.138,64.0109 222,64.5C 219.659,63.9931 219.159,62.8265 220.5,61C 218.426,61.2273 216.426,61.0606 214.5,60.5C 213.479,59.9984 213.312,59.3317 214,58.5C 215.067,57.8095 216.234,57.3095 217.5,57C 215.062,56.3179 212.895,56.8179 211,58.5C 206.399,55.9728 201.566,53.9728 196.5,52.5C 198.218,51.776 200.052,51.1094 202,50.5C 202.497,48.1902 202.663,45.8568 202.5,43.5C 203.791,43.7373 204.791,43.404 205.5,42.5 Z"/></g>
<g><path style="opacity:1" fill="#af818a" d="M 176.5,28.5 C 173.369,31.4878 170.702,34.9878 168.5,39C 163.628,40.3885 158.628,40.8885 153.5,40.5C 153.5,40.1667 153.5,39.8333 153.5,39.5C 157.514,39.6655 161.514,39.4988 165.5,39C 166.833,37.6667 168.167,36.3333 169.5,35C 162.808,34.1691 156.142,34.3358 149.5,35.5C 150.524,36.8518 151.524,38.1851 152.5,39.5C 151.167,39.1667 149.833,38.8333 148.5,38.5C 148.657,37.1266 148.49,35.7932 148,34.5C 140.701,27.6856 132.201,24.3523 122.5,24.5C 122.704,28.2196 121.704,31.553 119.5,34.5C 119.709,35.086 120.043,35.586 120.5,36C 118.057,40.7773 118.057,45.444 120.5,50C 125.481,50.7478 130.481,51.2478 135.5,51.5C 135.587,56.5895 133.587,60.5895 129.5,63.5C 128.534,65.396 128.201,67.396 128.5,69.5C 127.371,67.3718 127.204,65.0385 128,62.5C 130.405,60.597 132.239,58.2637 133.5,55.5C 128.892,53.5043 124.225,53.1709 119.5,54.5C 118.833,53.8333 118.167,53.1667 117.5,52.5C 116.676,49.2356 116.342,45.9023 116.5,42.5C 113.574,43.4608 110.574,44.1274 107.5,44.5C 110.624,42.9435 113.791,41.2768 117,39.5C 118,35.5 119,31.5 120,27.5C 122.388,22.774 126.222,21.274 131.5,23C 137.957,25.0594 143.624,28.3927 148.5,33C 155.833,33.6667 163.167,33.6667 170.5,33C 172.66,31.668 174.66,30.168 176.5,28.5 Z"/></g>
<g><path style="opacity:0.976" fill="#f9eff0" d="M 153.5,39.5 C 153.167,39.5 152.833,39.5 152.5,39.5C 151.524,38.1851 150.524,36.8518 149.5,35.5C 156.142,34.3358 162.808,34.1691 169.5,35C 168.167,36.3333 166.833,37.6667 165.5,39C 161.514,39.4988 157.514,39.6655 153.5,39.5 Z"/></g>
<g><path style="opacity:1" fill="#bd7681" d="M 182.5,58.5 C 180.923,61.0168 179.09,61.0168 177,58.5C 176.023,61.2413 175.523,64.0746 175.5,67C 175.824,70.7725 176.824,74.2725 178.5,77.5C 179.685,78.8566 180.685,80.3566 181.5,82C 180.993,84.3413 179.826,84.8413 178,83.5C 175.683,78.571 173.517,73.571 171.5,68.5C 170.167,66.5 168.5,64.8333 166.5,63.5C 165.341,60.5186 164.341,57.5186 163.5,54.5C 169.542,53.591 175.542,53.2576 181.5,53.5C 176.387,52.9171 171.387,51.9171 166.5,50.5C 171.112,47.8016 171.112,44.8016 166.5,41.5C 165.548,43.0453 165.215,44.712 165.5,46.5C 161.454,45.7894 157.788,45.7894 154.5,46.5C 153.534,44.604 153.201,42.604 153.5,40.5C 158.628,40.8885 163.628,40.3885 168.5,39C 170.702,34.9878 173.369,31.4878 176.5,28.5C 179.358,28.4046 181.691,27.2379 183.5,25C 186.711,24.2018 189.711,24.7018 192.5,26.5C 193.167,26.1667 193.833,25.8333 194.5,25.5C 196.837,28.0888 198.504,30.5888 199.5,33C 199.941,37.7555 199.441,42.9222 198,48.5C 193.445,50.76 188.612,52.0933 183.5,52.5C 182.534,54.396 182.201,56.396 182.5,58.5 Z"/></g>
<g><path style="opacity:1" fill="#d6a1a5" d="M 180.5,30.5 C 187.074,29.4447 191.407,31.9447 193.5,38C 189.798,44.1062 184.298,47.2729 177,47.5C 175.685,41.2834 176.851,35.6167 180.5,30.5 Z"/></g>
<g><path style="opacity:1" fill="#864a53" d="M 148.5,38.5 C 149.833,38.8333 151.167,39.1667 152.5,39.5C 152.833,39.5 153.167,39.5 153.5,39.5C 153.5,39.8333 153.5,40.1667 153.5,40.5C 153.201,42.604 153.534,44.604 154.5,46.5C 157.788,45.7894 161.454,45.7894 165.5,46.5C 165.215,44.712 165.548,43.0453 166.5,41.5C 171.112,44.8016 171.112,47.8016 166.5,50.5C 171.387,51.9171 176.387,52.9171 181.5,53.5C 175.542,53.2576 169.542,53.591 163.5,54.5C 163.179,52.9519 162.179,52.2852 160.5,52.5C 159.167,52.5 157.833,52.5 156.5,52.5C 156.768,54.099 156.434,55.4324 155.5,56.5C 154.883,56.3893 154.383,56.056 154,55.5C 153.722,56.4158 153.222,57.0825 152.5,57.5C 152.119,56.0689 151.119,55.2355 149.5,55C 145.167,54.6667 140.833,54.3333 136.5,54C 141.583,53.5736 146.583,52.7403 151.5,51.5C 152.614,50.277 152.781,48.9437 152,47.5C 150.414,44.6595 148.58,41.9928 146.5,39.5C 146.957,38.7025 147.624,38.3691 148.5,38.5 Z"/></g>
<g><path style="opacity:1" fill="#fdfcfc" d="M 186.5,53.5 C 192.072,52.9896 197.405,53.8229 202.5,56C 215.019,61.4187 226.352,68.5853 236.5,77.5C 249.154,78.3326 261.82,78.8326 274.5,79C 275,79.5 275.5,80 276,80.5C 276.5,87.4921 276.666,94.4921 276.5,101.5C 283.09,101.189 289.59,101.522 296,102.5C 296.5,112.161 296.666,121.828 296.5,131.5C 296.805,136.762 296.471,141.928 295.5,147C 288.919,147.187 282.419,147.687 276,148.5C 275.5,155.492 275.334,162.492 275.5,169.5C 262.656,169.171 249.989,169.505 237.5,170.5C 218.112,187.529 195.445,197.195 169.5,199.5C 170.429,198.685 171.429,197.852 172.5,197C 171.833,196.667 171.167,196.333 170.5,196C 172.18,195.966 173.68,195.799 175,195.5C 175.483,194.552 175.649,193.552 175.5,192.5C 177.103,192.688 178.437,192.188 179.5,191C 179.638,187.617 179.304,184.117 178.5,180.5C 176.585,180.784 174.919,180.451 173.5,179.5C 176.335,178.799 179.335,178.633 182.5,179C 181.572,178.612 180.905,177.945 180.5,177C 181.707,175.7 182.374,174.2 182.5,172.5C 188.516,172.098 194.516,171.431 200.5,170.5C 206.502,171.135 212.502,171.301 218.5,171C 223.605,168.962 223.605,167.295 218.5,166C 204.092,165.816 189.759,165.316 175.5,164.5C 174.391,163.71 173.058,163.21 171.5,163C 173.421,162.64 175.088,161.806 176.5,160.5C 176.154,159.304 175.654,159.304 175,160.5C 174.345,158.372 173.511,156.372 172.5,154.5C 175.112,153.723 176.945,152.056 178,149.5C 179.506,154.411 182.673,155.744 187.5,153.5C 192.301,156.22 196.635,155.554 200.5,151.5C 203.704,154.11 206.87,154.11 210,151.5C 211.913,153.187 214.08,153.687 216.5,153C 219.489,150.179 221.156,147.012 221.5,143.5C 220.243,145.679 218.743,147.679 217,149.5C 216.667,146.167 216.333,142.833 216,139.5C 213.599,138.398 211.099,138.231 208.5,139C 205.269,141.727 202.603,144.894 200.5,148.5C 199.333,146.833 198.167,145.167 197,143.5C 196.885,140.366 196.718,137.366 196.5,134.5C 200.336,134.874 204.336,134.874 208.5,134.5C 208.281,135.675 208.614,136.675 209.5,137.5C 211.276,136.685 211.943,135.518 211.5,134C 212.333,133.833 213.167,133.667 214,133.5C 215.906,135.818 218.906,137.485 223,138.5C 225.048,136.494 224.548,135.494 221.5,135.5C 221.5,134.5 221.5,133.5 221.5,132.5C 222.822,132.67 223.989,132.337 225,131.5C 225.333,129.167 225.667,126.833 226,124.5C 227.871,122.935 229.704,122.269 231.5,122.5C 230.105,119.38 228.772,116.213 227.5,113C 223.761,113.327 220.094,113.16 216.5,112.5C 216.228,108.317 215.894,104.15 215.5,100C 209.986,98.7164 204.653,97.0497 199.5,95C 198.257,93.8455 197.257,92.5122 196.5,91C 195.333,90.8333 194.167,90.6667 193,90.5C 191.319,90.6083 190.152,91.2749 189.5,92.5C 189.5,92.8333 189.5,93.1667 189.5,93.5C 187.283,94.3686 184.95,94.702 182.5,94.5C 181.522,94.189 180.855,93.5223 180.5,92.5C 183.894,90.8909 185.227,88.2243 184.5,84.5C 187.071,78.6915 189.071,72.6915 190.5,66.5C 190.333,65.1667 190.167,63.8333 190,62.5C 187.614,59.9537 185.447,57.287 183.5,54.5C 184.325,53.6143 185.325,53.281 186.5,53.5 Z"/></g>
<g><path style="opacity:1" fill="#fbfafa" d="M 160.5,52.5 C 164.977,65.121 170.81,77.121 178,88.5C 178.689,89.3567 179.522,90.0233 180.5,90.5C 181.492,88.1928 182.825,86.1928 184.5,84.5C 185.227,88.2243 183.894,90.8909 180.5,92.5C 180.855,93.5223 181.522,94.189 182.5,94.5C 181.222,95.7495 180.222,97.2495 179.5,99C 178.552,99.4828 177.552,99.6495 176.5,99.5C 176.649,98.448 176.483,97.448 176,96.5C 174.989,97.3366 173.822,97.67 172.5,97.5C 172.201,99.973 171.201,102.14 169.5,104C 171.112,105.482 172.112,107.315 172.5,109.5C 171.011,111.645 170.011,113.978 169.5,116.5C 163.04,115.178 160.707,117.511 162.5,123.5C 162.421,125.666 161.754,127.666 160.5,129.5C 162.452,131.126 163.786,133.126 164.5,135.5C 161.607,135.031 159.607,136.031 158.5,138.5C 157.115,139.574 155.949,140.907 155,142.5C 154.888,139.553 153.388,138.22 150.5,138.5C 150.924,143.983 148.924,148.317 144.5,151.5C 144.167,150.833 143.833,150.167 143.5,149.5C 144.488,146.218 145.154,142.885 145.5,139.5C 144.5,139.5 143.5,139.5 142.5,139.5C 141.183,143.757 140.683,148.09 141,152.5C 143.881,154.028 146.214,153.362 148,150.5C 148.368,151.91 149.201,152.91 150.5,153.5C 151.941,148.397 154.607,144.064 158.5,140.5C 158.833,140.833 159.167,141.167 159.5,141.5C 157.268,145.196 156.268,149.196 156.5,153.5C 160.273,154.178 163.106,152.844 165,149.5C 165.77,153.771 168.27,155.437 172.5,154.5C 173.511,156.372 174.345,158.372 175,160.5C 175.654,159.304 176.154,159.304 176.5,160.5C 175.088,161.806 173.421,162.64 171.5,163C 173.058,163.21 174.391,163.71 175.5,164.5C 173.167,164.5 170.833,164.5 168.5,164.5C 168.586,163.504 168.252,162.671 167.5,162C 162.713,161.121 158.047,161.455 153.5,163C 154.5,163.333 155.5,163.667 156.5,164C 138.883,165.774 121.216,166.941 103.5,167.5C 102.289,168.72 102.289,169.887 103.5,171C 111.652,171.028 119.818,170.861 128,170.5C 134.295,170.634 140.461,171.301 146.5,172.5C 144.391,175.97 142.558,179.637 141,183.5C 139.301,184.406 137.467,184.739 135.5,184.5C 135.33,185.822 135.663,186.989 136.5,188C 142.184,189.031 147.85,189.698 153.5,190C 154.451,189.282 154.617,188.449 154,187.5C 151.599,188.602 149.099,188.769 146.5,188C 144.59,187.592 143.59,186.425 143.5,184.5C 144.95,181.657 146.116,178.657 147,175.5C 148.395,174.185 149.395,174.519 150,176.5C 150.483,175.552 150.649,174.552 150.5,173.5C 153.189,175.11 156.189,175.943 159.5,176C 162.666,177.899 165.666,179.733 168.5,181.5C 164.167,181.167 162.167,183.167 162.5,187.5C 163.999,188.678 164.999,190.345 165.5,192.5C 166.167,191.167 166.833,189.833 167.5,188.5C 169.725,187.899 171.891,187.566 174,187.5C 175.128,185.655 175.628,183.655 175.5,181.5C 173.708,181.366 172.042,181.699 170.5,182.5C 170.81,180.856 171.81,179.856 173.5,179.5C 174.919,180.451 176.585,180.784 178.5,180.5C 179.304,184.117 179.638,187.617 179.5,191C 178.437,192.188 177.103,192.688 175.5,192.5C 175.649,193.552 175.483,194.552 175,195.5C 173.68,195.799 172.18,195.966 170.5,196C 171.167,196.333 171.833,196.667 172.5,197C 171.429,197.852 170.429,198.685 169.5,199.5C 157.753,200.94 146.086,200.273 134.5,197.5C 115.254,192.12 97.9207,182.953 82.5,170C 70.1667,169.667 57.8333,169.333 45.5,169C 44.5201,161.921 44.1868,154.755 44.5,147.5C 38.1579,147.666 31.8246,147.5 25.5,147C 25,146.5 24.5,146 24,145.5C 23.3333,131.167 23.3333,116.833 24,102.5C 30.7445,101.521 37.5778,101.188 44.5,101.5C 44.1858,93.9129 44.5192,86.4129 45.5,79C 58.1667,78.6667 70.8333,78.3333 83.5,78C 94.3463,68.3056 106.346,60.4723 119.5,54.5C 124.225,53.1709 128.892,53.5043 133.5,55.5C 132.239,58.2637 130.405,60.597 128,62.5C 127.204,65.0385 127.371,67.3718 128.5,69.5C 128.5,69.8333 128.5,70.1667 128.5,70.5C 131.457,77.7167 134.79,84.7167 138.5,91.5C 145.512,80.4878 151.178,68.8211 155.5,56.5C 156.434,55.4324 156.768,54.099 156.5,52.5C 157.833,52.5 159.167,52.5 160.5,52.5 Z"/></g>
<g><path style="opacity:1" fill="#af7b85" d="M 205.5,42.5 C 204.791,43.404 203.791,43.7373 202.5,43.5C 202.663,45.8568 202.497,48.1902 202,50.5C 200.052,51.1094 198.218,51.776 196.5,52.5C 192.958,52.1872 189.625,52.5206 186.5,53.5C 185.325,53.281 184.325,53.6143 183.5,54.5C 185.447,57.287 187.614,59.9537 190,62.5C 190.167,63.8333 190.333,65.1667 190.5,66.5C 189.071,72.6915 187.071,78.6915 184.5,84.5C 182.825,86.1928 181.492,88.1928 180.5,90.5C 179.522,90.0233 178.689,89.3567 178,88.5C 170.81,77.121 164.977,65.121 160.5,52.5C 162.179,52.2852 163.179,52.9519 163.5,54.5C 164.341,57.5186 165.341,60.5186 166.5,63.5C 168.5,64.8333 170.167,66.5 171.5,68.5C 173.517,73.571 175.683,78.571 178,83.5C 179.826,84.8413 180.993,84.3413 181.5,82C 180.685,80.3566 179.685,78.8566 178.5,77.5C 180.861,77.3259 183.194,76.9926 185.5,76.5C 185.946,73.6108 186.946,70.9441 188.5,68.5C 187.672,65.5212 187.005,62.5212 186.5,59.5C 185.041,59.5674 183.708,59.2341 182.5,58.5C 182.201,56.396 182.534,54.396 183.5,52.5C 188.612,52.0933 193.445,50.76 198,48.5C 199.441,42.9222 199.941,37.7555 199.5,33C 198.504,30.5888 196.837,28.0888 194.5,25.5C 193.833,25.8333 193.167,26.1667 192.5,26.5C 189.711,24.7018 186.711,24.2018 183.5,25C 181.691,27.2379 179.358,28.4046 176.5,28.5C 181.622,22.9453 187.956,20.7786 195.5,22C 199.199,27.4251 201.533,33.4251 202.5,40C 203.13,41.3102 204.13,42.1435 205.5,42.5 Z"/></g>
<g><path style="opacity:1" fill="#cd8993" d="M 182.5,58.5 C 183.708,59.2341 185.041,59.5674 186.5,59.5C 187.005,62.5212 187.672,65.5212 188.5,68.5C 186.946,70.9441 185.946,73.6108 185.5,76.5C 183.194,76.9926 180.861,77.3259 178.5,77.5C 176.824,74.2725 175.824,70.7725 175.5,67C 175.523,64.0746 176.023,61.2413 177,58.5C 179.09,61.0168 180.923,61.0168 182.5,58.5 Z"/></g>
<g><path style="opacity:1" fill="#c37d87" d="M 148.5,38.5 C 147.624,38.3691 146.957,38.7025 146.5,39.5C 148.58,41.9928 150.414,44.6595 152,47.5C 152.781,48.9437 152.614,50.277 151.5,51.5C 146.583,52.7403 141.583,53.5736 136.5,54C 140.833,54.3333 145.167,54.6667 149.5,55C 151.119,55.2355 152.119,56.0689 152.5,57.5C 152.66,59.1992 152.494,60.8659 152,62.5C 148.135,70.1368 144.635,77.8034 141.5,85.5C 139.799,85.9662 138.299,85.9662 137,85.5C 135.149,81.9964 133.816,78.3298 133,74.5C 131.629,72.9586 130.129,71.6253 128.5,70.5C 128.5,70.1667 128.5,69.8333 128.5,69.5C 128.201,67.396 128.534,65.396 129.5,63.5C 133.587,60.5895 135.587,56.5895 135.5,51.5C 130.481,51.2478 125.481,50.7478 120.5,50C 118.057,45.444 118.057,40.7773 120.5,36C 120.043,35.586 119.709,35.086 119.5,34.5C 121.704,31.553 122.704,28.2196 122.5,24.5C 132.201,24.3523 140.701,27.6856 148,34.5C 148.49,35.7932 148.657,37.1266 148.5,38.5 Z"/></g>
<g><path style="opacity:1" fill="#d49da2" d="M 131.5,33.5 C 137.079,33.1087 140.746,35.4421 142.5,40.5C 140.524,45.8675 136.524,48.5342 130.5,48.5C 128.045,48.1062 126.045,46.9396 124.5,45C 125.962,41.906 127.296,38.7394 128.5,35.5C 129.602,34.8243 130.602,34.1577 131.5,33.5 Z"/></g>
<g><path style="opacity:0.027" fill="#91688e" d="M 241.5,62.5 C 253.296,63.1268 264.962,63.7934 276.5,64.5C 265.162,64.6665 253.828,64.4999 242.5,64C 241.944,63.6174 241.611,63.1174 241.5,62.5 Z"/></g>
<g><path style="opacity:0.169" fill="#c2a3ac" d="M 85.5,58.5 C 83.6645,61.1676 81.3312,63.3343 78.5,65C 67.505,65.4998 56.505,65.6665 45.5,65.5C 55.9921,64.6696 66.6588,64.1696 77.5,64C 80.0652,61.9205 82.7318,60.0872 85.5,58.5 Z"/></g>
<g><path style="opacity:0.661" fill="#f3eeef" d="M 117.5,52.5 C 117.213,54.1207 116.213,55.1207 114.5,55.5C 113.549,54.6744 112.549,54.5078 111.5,55C 111.833,55.3333 112.167,55.6667 112.5,56C 111.335,57.0836 110.002,57.9169 108.5,58.5C 107.1,56.2183 107.766,54.7183 110.5,54C 109.5,53.3333 108.5,53.3333 107.5,54C 106.33,55.7547 104.663,56.7547 102.5,57C 103.5,57.3333 104.5,57.6667 105.5,58C 106.833,58.6667 106.833,59.3333 105.5,60C 103.5,60.3333 101.5,60.6667 99.5,61C 100.495,63.0545 99.6616,64.2212 97,64.5C 93.1082,62.5795 90.6082,63.5795 89.5,67.5C 86.5114,68.2984 83.8448,69.7984 81.5,72C 79.3018,72.3729 77.1351,72.8729 75,73.5C 66.5276,73.0718 58.0276,72.7384 49.5,72.5C 47.1807,73.0639 44.8474,73.5639 42.5,74C 41.9011,75.6225 41.2344,77.1225 40.5,78.5C 40.5,77.5 40.5,76.5 40.5,75.5C 38.1944,75.0074 35.861,74.6741 33.5,74.5C 33.5979,76.5529 32.9313,78.2196 31.5,79.5C 32.5443,71.1222 37.211,66.4556 45.5,65.5C 56.505,65.6665 67.505,65.4998 78.5,65C 81.3312,63.3343 83.6645,61.1676 85.5,58.5C 91.8092,52.3385 99.1425,47.6718 107.5,44.5C 110.574,44.1274 113.574,43.4608 116.5,42.5C 116.342,45.9023 116.676,49.2356 117.5,52.5 Z"/></g>
<g><path style="opacity:1" fill="#b8b1b3" d="M 186.5,53.5 C 189.625,52.5206 192.958,52.1872 196.5,52.5C 201.566,53.9728 206.399,55.9728 211,58.5C 212.895,56.8179 215.062,56.3179 217.5,57C 216.234,57.3095 215.067,57.8095 214,58.5C 213.312,59.3317 213.479,59.9984 214.5,60.5C 216.426,61.0606 218.426,61.2273 220.5,61C 219.159,62.8265 219.659,63.9931 222,64.5C 223.138,64.0109 224.305,63.6775 225.5,63.5C 226.552,63.3505 227.552,63.5172 228.5,64C 232.012,66.0608 235.012,68.5608 237.5,71.5C 233.855,72.8823 234.189,74.3823 238.5,76C 250.701,76.9047 262.701,76.5713 274.5,75C 274.167,75.3333 273.833,75.6667 273.5,76C 274.667,77.1667 275.833,78.3333 277,79.5C 276.928,84.3082 277.761,88.8082 279.5,93C 277.808,94.4007 277.141,96.2341 277.5,98.5C 281.452,99.2721 285.452,99.6054 289.5,99.5C 289.833,95.5 290.167,95.5 290.5,99.5C 291.833,99.5 293.167,99.5 294.5,99.5C 294.263,98.209 294.596,97.209 295.5,96.5C 296.978,96.238 298.311,96.5713 299.5,97.5C 300.172,99.5295 300.838,101.53 301.5,103.5C 300.5,103.5 299.5,103.5 298.5,103.5C 297.926,108.648 298.593,113.482 300.5,118C 298.736,123.546 297.902,129.38 298,135.5C 297.79,133.942 297.29,132.609 296.5,131.5C 296.666,121.828 296.5,112.161 296,102.5C 289.59,101.522 283.09,101.189 276.5,101.5C 276.666,94.4921 276.5,87.4921 276,80.5C 275.5,80 275,79.5 274.5,79C 261.82,78.8326 249.154,78.3326 236.5,77.5C 226.352,68.5853 215.019,61.4187 202.5,56C 197.405,53.8229 192.072,52.9896 186.5,53.5 Z"/></g>
<g><path style="opacity:1" fill="#cfc9cb" d="M 237.5,71.5 C 241.681,72.8735 246.015,73.5402 250.5,73.5C 257.155,73.1665 263.655,72.8332 270,72.5C 272.464,73.1608 274.964,73.6608 277.5,74C 281.565,79.902 282.565,86.402 280.5,93.5C 284.359,95.5879 288.359,95.9212 292.5,94.5C 294.038,94.4534 295.038,95.1201 295.5,96.5C 294.596,97.209 294.263,98.209 294.5,99.5C 293.167,99.5 291.833,99.5 290.5,99.5C 290.167,95.5 289.833,95.5 289.5,99.5C 285.452,99.6054 281.452,99.2721 277.5,98.5C 277.141,96.2341 277.808,94.4007 279.5,93C 277.761,88.8082 276.928,84.3082 277,79.5C 275.833,78.3333 274.667,77.1667 273.5,76C 273.833,75.6667 274.167,75.3333 274.5,75C 262.701,76.5713 250.701,76.9047 238.5,76C 234.189,74.3823 233.855,72.8823 237.5,71.5 Z"/></g>
<g><path style="opacity:1" fill="#aa7d86" d="M 155.5,56.5 C 151.178,68.8211 145.512,80.4878 138.5,91.5C 134.79,84.7167 131.457,77.7167 128.5,70.5C 130.129,71.6253 131.629,72.9586 133,74.5C 133.816,78.3298 135.149,81.9964 137,85.5C 138.299,85.9662 139.799,85.9662 141.5,85.5C 144.635,77.8034 148.135,70.1368 152,62.5C 152.494,60.8659 152.66,59.1992 152.5,57.5C 153.222,57.0825 153.722,56.4158 154,55.5C 154.383,56.056 154.883,56.3893 155.5,56.5 Z"/></g>
<g><path style="opacity:0.465" fill="#d2b8be" d="M 31.5,79.5 C 31.5,82.5 31.5,85.5 31.5,88.5C 26.6077,88.2259 21.941,88.8926 17.5,90.5C 18.0577,89.2101 19.0577,88.3768 20.5,88C 23.5,87.1667 26.5,86.3333 29.5,85.5C 30.0505,83.3432 30.7171,81.3432 31.5,79.5 Z"/></g>
<g><path style="opacity:0.329" fill="#c3aab1" d="M 287.5,70.5 C 289.749,75.4631 291.083,80.7965 291.5,86.5C 296.53,87.1844 300.864,89.1844 304.5,92.5C 299.48,90.0281 294.147,88.6947 288.5,88.5C 288.64,82.4638 288.307,76.4638 287.5,70.5 Z"/></g>
<g><path style="opacity:0.137" fill="#bca4a7" d="M 13.5,94.5 C 13.628,96.6547 13.128,98.6547 12,100.5C 11.3333,115.833 11.3333,131.167 12,146.5C 13.1282,151.775 15.2948,156.441 18.5,160.5C 14.6213,158.794 12.1213,155.794 11,151.5C 10.3333,134.167 10.3333,116.833 11,99.5C 11.3736,97.5087 12.207,95.842 13.5,94.5 Z"/></g>
<g><path style="opacity:1" fill="#c3bdbf" d="M 117.5,52.5 C 118.167,53.1667 118.833,53.8333 119.5,54.5C 106.346,60.4723 94.3463,68.3056 83.5,78C 70.8333,78.3333 58.1667,78.6667 45.5,79C 44.5192,86.4129 44.1858,93.9129 44.5,101.5C 37.5778,101.188 30.7445,101.521 24,102.5C 23.3333,116.833 23.3333,131.167 24,145.5C 24.5,146 25,146.5 25.5,147C 31.8246,147.5 38.1579,147.666 44.5,147.5C 44.1868,154.755 44.5201,161.921 45.5,169C 57.8333,169.333 70.1667,169.667 82.5,170C 97.9207,182.953 115.254,192.12 134.5,197.5C 132.972,197.517 132.472,198.184 133,199.5C 135.081,198.667 137.248,198.667 139.5,199.5C 139.351,200.552 139.517,201.552 140,202.5C 141.067,200.717 142.567,200.217 144.5,201C 145.252,201.671 145.586,202.504 145.5,203.5C 144.903,204.139 144.07,204.472 143,204.5C 137.651,203.807 132.484,202.641 127.5,201C 126.256,198.697 124.589,198.197 122.5,199.5C 119.932,197.283 116.932,196.116 113.5,196C 112.304,195.346 112.304,194.846 113.5,194.5C 119.395,195.274 119.729,194.274 114.5,191.5C 112.133,193.395 109.466,193.895 106.5,193C 99.6368,189.169 92.9701,184.835 86.5,180C 85.4258,179.261 84.7591,178.261 84.5,177C 85.452,175.7 85.452,174.533 84.5,173.5C 81.9771,171.592 79.3104,171.259 76.5,172.5C 77.5063,173.396 77.5063,174.062 76.5,174.5C 75.6143,173.675 75.281,172.675 75.5,171.5C 69.3036,171.574 68.9703,172.741 74.5,175C 66.4717,175.228 58.4717,175.728 50.5,176.5C 48.0597,175.107 45.3931,174.273 42.5,174C 39.8715,170.117 38.2048,166.117 37.5,162C 38.3606,158.863 39.0272,155.697 39.5,152.5C 35.3392,152.242 31.3392,152.242 27.5,152.5C 24.3406,151.565 21.674,149.898 19.5,147.5C 19.7093,146.914 20.0426,146.414 20.5,146C 18.8829,143.63 17.8829,140.964 17.5,138C 18.6381,132.292 18.6381,126.626 17.5,121C 19.4835,115.718 19.8168,110.551 18.5,105.5C 19.0639,103.181 19.5639,100.847 20,98.5C 22.6083,97.7253 25.1083,96.7253 27.5,95.5C 31.4891,95.7149 35.4891,95.7149 39.5,95.5C 39.7563,90.7305 39.4229,86.0638 38.5,81.5C 38.9424,80.2613 39.6091,79.2613 40.5,78.5C 41.2344,77.1225 41.9011,75.6225 42.5,74C 44.8474,73.5639 47.1807,73.0639 49.5,72.5C 58.0276,72.7384 66.5276,73.0718 75,73.5C 77.1351,72.8729 79.3018,72.3729 81.5,72C 83.8448,69.7984 86.5114,68.2984 89.5,67.5C 90.6082,63.5795 93.1082,62.5795 97,64.5C 99.6616,64.2212 100.495,63.0545 99.5,61C 101.5,60.6667 103.5,60.3333 105.5,60C 106.833,59.3333 106.833,58.6667 105.5,58C 104.5,57.6667 103.5,57.3333 102.5,57C 104.663,56.7547 106.33,55.7547 107.5,54C 108.5,53.3333 109.5,53.3333 110.5,54C 107.766,54.7183 107.1,56.2183 108.5,58.5C 110.002,57.9169 111.335,57.0836 112.5,56C 112.167,55.6667 111.833,55.3333 111.5,55C 112.549,54.5078 113.549,54.6744 114.5,55.5C 116.213,55.1207 117.213,54.1207 117.5,52.5 Z"/></g>
<g><path style="opacity:0.047" fill="#99767d" d="M 18.5,160.5 C 22.4338,161.36 26.4338,161.693 30.5,161.5C 30.7441,166.811 32.0774,171.811 34.5,176.5C 31.1748,172.915 29.5081,168.581 29.5,163.5C 26.1606,163.11 22.8273,162.61 19.5,162C 18.944,161.617 18.6107,161.117 18.5,160.5 Z"/></g>
<g><path style="opacity:0.997" fill="#f5f5f4" d="M 284.5,67.5 C 285.833,68.1667 286.833,69.1667 287.5,70.5C 288.307,76.4638 288.64,82.4638 288.5,88.5C 294.147,88.6947 299.48,90.0281 304.5,92.5C 307.896,95.2912 309.729,98.9579 310,103.5C 310.828,119.339 310.661,135.005 309.5,150.5C 305.089,158.039 298.422,161.373 289.5,160.5C 290.76,171.372 286.427,178.872 276.5,183C 264.833,183.333 253.167,183.667 241.5,184C 199.358,215.135 154.024,220.801 105.5,201C 95.8338,195.836 86.5004,190.169 77.5,184C 65.8463,183.112 54.1796,182.445 42.5,182C 39.6305,180.404 36.9639,178.57 34.5,176.5C 32.0774,171.811 30.7441,166.811 30.5,161.5C 26.4338,161.693 22.4338,161.36 18.5,160.5C 15.2948,156.441 13.1282,151.775 12,146.5C 11.3333,131.167 11.3333,115.833 12,100.5C 13.128,98.6547 13.628,96.6547 13.5,94.5C 13.8333,92.1667 15.1667,90.8333 17.5,90.5C 21.941,88.8926 26.6077,88.2259 31.5,88.5C 31.5,85.5 31.5,82.5 31.5,79.5C 32.9313,78.2196 33.5979,76.5529 33.5,74.5C 35.861,74.6741 38.1944,75.0074 40.5,75.5C 40.5,76.5 40.5,77.5 40.5,78.5C 39.6091,79.2613 38.9424,80.2613 38.5,81.5C 39.4229,86.0638 39.7563,90.7305 39.5,95.5C 35.4891,95.7149 31.4891,95.7149 27.5,95.5C 25.1083,96.7253 22.6083,97.7253 20,98.5C 19.5639,100.847 19.0639,103.181 18.5,105.5C 19.8168,110.551 19.4835,115.718 17.5,121C 18.6381,126.626 18.6381,132.292 17.5,138C 17.8829,140.964 18.8829,143.63 20.5,146C 20.0426,146.414 19.7093,146.914 19.5,147.5C 21.674,149.898 24.3406,151.565 27.5,152.5C 31.3392,152.242 35.3392,152.242 39.5,152.5C 39.0272,155.697 38.3606,158.863 37.5,162C 38.2048,166.117 39.8715,170.117 42.5,174C 45.3931,174.273 48.0597,175.107 50.5,176.5C 58.4717,175.728 66.4717,175.228 74.5,175C 68.9703,172.741 69.3036,171.574 75.5,171.5C 75.281,172.675 75.6143,173.675 76.5,174.5C 77.5063,174.062 77.5063,173.396 76.5,172.5C 79.3104,171.259 81.9771,171.592 84.5,173.5C 85.452,174.533 85.452,175.7 84.5,177C 84.7591,178.261 85.4258,179.261 86.5,180C 92.9701,184.835 99.6368,189.169 106.5,193C 109.466,193.895 112.133,193.395 114.5,191.5C 119.729,194.274 119.395,195.274 113.5,194.5C 112.304,194.846 112.304,195.346 113.5,196C 116.932,196.116 119.932,197.283 122.5,199.5C 124.589,198.197 126.256,198.697 127.5,201C 132.484,202.641 137.651,203.807 143,204.5C 144.07,204.472 144.903,204.139 145.5,203.5C 146.893,202.74 148.393,202.074 150,201.5C 150.833,201.833 151.667,202.167 152.5,202.5C 151.494,203.396 151.494,204.062 152.5,204.5C 154.11,203.448 155.777,203.448 157.5,204.5C 159.771,203.729 161.938,202.729 164,201.5C 164.833,201.833 165.667,202.167 166.5,202.5C 165.494,203.396 165.494,204.062 166.5,204.5C 170.192,203.987 174.025,203.987 178,204.5C 179.261,204.241 180.261,203.574 181,202.5C 182.388,203.554 183.888,203.72 185.5,203C 180.01,201.146 180.176,199.646 186,198.5C 188.184,201.457 189.351,201.123 189.5,197.5C 190.93,197.579 192.264,197.246 193.5,196.5C 194.532,198.04 195.865,198.54 197.5,198C 196.505,195.945 197.338,194.779 200,194.5C 200.95,195.022 201.784,195.689 202.5,196.5C 202.554,195.47 202.888,194.303 203.5,193C 205.419,191.066 206.919,191.233 208,193.5C 208.406,191.221 209.739,189.887 212,189.5C 213.364,191.603 212.53,193.103 209.5,194C 210.5,194.667 211.5,194.667 212.5,194C 214.135,192.252 216.135,191.085 218.5,190.5C 217.738,190.089 216.738,189.923 215.5,190C 214.289,189.107 214.289,188.274 215.5,187.5C 219.828,184.842 224.161,182.176 228.5,179.5C 230.098,180.485 231.765,180.651 233.5,180C 231.114,179.716 230.448,178.716 231.5,177C 236.411,176.543 241.077,175.376 245.5,173.5C 248.899,174.82 252.399,174.82 256,173.5C 256.739,174.574 257.739,175.241 259,175.5C 265.118,175.29 271.284,174.457 277.5,173C 278.672,171.003 280.005,169.17 281.5,167.5C 281.392,166.558 281.059,165.725 280.5,165C 281.574,164.261 282.241,163.261 282.5,162C 281.886,159.146 281.219,156.313 280.5,153.5C 282.108,152.682 283.775,152.015 285.5,151.5C 290.686,153.081 295.52,152.415 300,149.5C 300.381,146.959 301.214,144.626 302.5,142.5C 301.981,129.358 301.648,116.358 301.5,103.5C 300.838,101.53 300.172,99.5295 299.5,97.5C 298.311,96.5713 296.978,96.238 295.5,96.5C 295.038,95.1201 294.038,94.4534 292.5,94.5C 288.359,95.9212 284.359,95.5879 280.5,93.5C 282.565,86.402 281.565,79.902 277.5,74C 274.964,73.6608 272.464,73.1608 270,72.5C 263.655,72.8332 257.155,73.1665 250.5,73.5C 246.015,73.5402 241.681,72.8735 237.5,71.5C 235.012,68.5608 232.012,66.0608 228.5,64C 227.552,63.5172 226.552,63.3505 225.5,63.5C 225.092,62.3569 224.425,61.3569 223.5,60.5C 219.262,59.6838 217.929,57.3504 219.5,53.5C 221.12,56.0578 222.62,56.0578 224,53.5C 226.107,55.3326 228.607,56.4993 231.5,57C 232.337,58.0113 232.67,59.1779 232.5,60.5C 234.873,61.2943 237.206,62.2943 239.5,63.5C 240.386,64.325 240.719,65.325 240.5,66.5C 255.202,66.2164 269.869,66.5497 284.5,67.5 Z"/></g>
<g><path style="opacity:1" fill="#aa999c" d="M 146.5,172.5 C 147.833,172.5 149.167,172.5 150.5,172.5C 150.5,172.833 150.5,173.167 150.5,173.5C 150.649,174.552 150.483,175.552 150,176.5C 149.395,174.519 148.395,174.185 147,175.5C 146.116,178.657 144.95,181.657 143.5,184.5C 143.59,186.425 144.59,187.592 146.5,188C 149.099,188.769 151.599,188.602 154,187.5C 154.617,188.449 154.451,189.282 153.5,190C 147.85,189.698 142.184,189.031 136.5,188C 135.663,186.989 135.33,185.822 135.5,184.5C 137.467,184.739 139.301,184.406 141,183.5C 142.558,179.637 144.391,175.97 146.5,172.5 Z"/></g>
<g><path style="opacity:1" fill="#aca5a7" d="M 237.5,170.5 C 249.838,170.333 262.171,170.5 274.5,171C 274,171.5 273.5,172 273,172.5C 271.262,171.873 269.429,171.54 267.5,171.5C 265.359,171.613 263.525,172.28 262,173.5C 261.326,172.422 260.326,171.755 259,171.5C 257,172.833 255,172.833 253,171.5C 251.674,171.755 250.674,172.422 250,173.5C 248.311,170.867 246.811,170.867 245.5,173.5C 241.077,175.376 236.411,176.543 231.5,177C 230.448,178.716 231.114,179.716 233.5,180C 231.765,180.651 230.098,180.485 228.5,179.5C 224.161,182.176 219.828,184.842 215.5,187.5C 214.289,188.274 214.289,189.107 215.5,190C 216.738,189.923 217.738,190.089 218.5,190.5C 216.135,191.085 214.135,192.252 212.5,194C 211.5,194.667 210.5,194.667 209.5,194C 212.53,193.103 213.364,191.603 212,189.5C 209.739,189.887 208.406,191.221 208,193.5C 206.919,191.233 205.419,191.066 203.5,193C 202.888,194.303 202.554,195.47 202.5,196.5C 201.784,195.689 200.95,195.022 200,194.5C 197.338,194.779 196.505,195.945 197.5,198C 195.865,198.54 194.532,198.04 193.5,196.5C 192.264,197.246 190.93,197.579 189.5,197.5C 189.351,201.123 188.184,201.457 186,198.5C 180.176,199.646 180.01,201.146 185.5,203C 183.888,203.72 182.388,203.554 181,202.5C 180.261,203.574 179.261,204.241 178,204.5C 174.025,203.987 170.192,203.987 166.5,204.5C 165.494,204.062 165.494,203.396 166.5,202.5C 165.667,202.167 164.833,201.833 164,201.5C 161.938,202.729 159.771,203.729 157.5,204.5C 155.777,203.448 154.11,203.448 152.5,204.5C 151.494,204.062 151.494,203.396 152.5,202.5C 151.667,202.167 150.833,201.833 150,201.5C 148.393,202.074 146.893,202.74 145.5,203.5C 145.586,202.504 145.252,201.671 144.5,201C 142.567,200.217 141.067,200.717 140,202.5C 139.517,201.552 139.351,200.552 139.5,199.5C 137.248,198.667 135.081,198.667 133,199.5C 132.472,198.184 132.972,197.517 134.5,197.5C 146.086,200.273 157.753,200.94 169.5,199.5C 195.445,197.195 218.112,187.529 237.5,170.5 Z"/></g>
<g><path style="opacity:1" fill="#fbfaee" d="M 168.5,164.5 C 170.833,164.5 173.167,164.5 175.5,164.5C 189.759,165.316 204.092,165.816 218.5,166C 223.605,167.295 223.605,168.962 218.5,171C 212.502,171.301 206.502,171.135 200.5,170.5C 194.516,171.431 188.516,172.098 182.5,172.5C 182.374,174.2 181.707,175.7 180.5,177C 180.905,177.945 181.572,178.612 182.5,179C 179.335,178.633 176.335,178.799 173.5,179.5C 171.81,179.856 170.81,180.856 170.5,182.5C 169.886,184.723 168.552,186.389 166.5,187.5C 166.167,186.667 165.833,185.833 165.5,185C 166.408,183.402 167.408,182.236 168.5,181.5C 165.666,179.733 162.666,177.899 159.5,176C 156.189,175.943 153.189,175.11 150.5,173.5C 150.5,173.167 150.5,172.833 150.5,172.5C 153.545,172.704 156.379,172.704 159,172.5C 160.363,174.784 161.863,174.951 163.5,173C 168.019,172.825 172.353,172.325 176.5,171.5C 178.679,170.941 180.846,170.274 183,169.5C 183.873,169.735 184.707,170.069 185.5,170.5C 196.136,169.855 206.803,169.188 217.5,168.5C 203.846,167.667 190.179,167.167 176.5,167C 174.575,165.405 172.575,165.238 170.5,166.5C 169.478,166.145 168.811,165.478 168.5,164.5 Z"/></g>
<g><path style="opacity:1" fill="#dec684" d="M 168.5,164.5 C 168.811,165.478 169.478,166.145 170.5,166.5C 172.575,165.238 174.575,165.405 176.5,167C 190.179,167.167 203.846,167.667 217.5,168.5C 206.803,169.188 196.136,169.855 185.5,170.5C 184.707,170.069 183.873,169.735 183,169.5C 180.846,170.274 178.679,170.941 176.5,171.5C 171.238,171.195 166.072,171.529 161,172.5C 154.963,172.104 149.13,171.104 143.5,169.5C 143.833,168.833 144.167,168.167 144.5,167.5C 145.915,166.711 147.415,166.044 149,165.5C 149.381,166.482 150.214,167.148 151.5,167.5C 155.235,167.333 158.402,166 161,163.5C 162.677,164.516 164.343,165.516 166,166.5C 167.011,165.944 167.844,165.278 168.5,164.5 Z"/></g>
<g><path style="opacity:1" fill="#fbf6d9" d="M 168.5,164.5 C 167.844,165.278 167.011,165.944 166,166.5C 164.343,165.516 162.677,164.516 161,163.5C 158.402,166 155.235,167.333 151.5,167.5C 150.214,167.148 149.381,166.482 149,165.5C 147.415,166.044 145.915,166.711 144.5,167.5C 131.15,167.167 117.817,167.501 104.5,168.5C 117.483,169.499 130.483,169.832 143.5,169.5C 149.13,171.104 154.963,172.104 161,172.5C 166.072,171.529 171.238,171.195 176.5,171.5C 172.353,172.325 168.019,172.825 163.5,173C 161.863,174.951 160.363,174.784 159,172.5C 156.379,172.704 153.545,172.704 150.5,172.5C 149.167,172.5 147.833,172.5 146.5,172.5C 140.461,171.301 134.295,170.634 128,170.5C 119.818,170.861 111.652,171.028 103.5,171C 102.289,169.887 102.289,168.72 103.5,167.5C 121.216,166.941 138.883,165.774 156.5,164C 155.5,163.667 154.5,163.333 153.5,163C 158.047,161.455 162.713,161.121 167.5,162C 168.252,162.671 168.586,163.504 168.5,164.5 Z"/></g>
<g><path style="opacity:1" fill="#dac990" d="M 144.5,167.5 C 144.167,168.167 143.833,168.833 143.5,169.5C 130.483,169.832 117.483,169.499 104.5,168.5C 117.817,167.501 131.15,167.167 144.5,167.5 Z"/></g>
<g><path style="opacity:1" fill="#ab8990" d="M 110.5,115.5 C 115.041,114.769 119.041,115.769 122.5,118.5C 126.848,116.965 131.014,117.299 135,119.5C 135.667,122.167 135.667,124.833 135,127.5C 128.554,137.309 119.387,142.309 107.5,142.5C 105.197,147.027 104.197,151.694 104.5,156.5C 113.739,154.207 123.072,153.874 132.5,155.5C 132.47,151.721 133.47,148.221 135.5,145C 134.465,144.747 133.465,143.914 132.5,142.5C 130.098,137.155 131.765,134.821 137.5,135.5C 137.167,137.5 136.833,139.5 136.5,141.5C 137.833,141.5 139.167,141.5 140.5,141.5C 139.425,146.725 137.758,151.725 135.5,156.5C 136.425,158.849 137.425,158.683 138.5,156C 143.667,154.5 145.5,156.333 144,161.5C 138.021,166.17 133.521,165.003 130.5,158C 120.181,156.171 110.515,157.837 101.5,163C 99.981,164.351 98.6477,165.851 97.5,167.5C 96.01,164.281 96.6766,161.615 99.5,159.5C 100.03,152.83 101.363,146.33 103.5,140C 103.05,138.715 102.383,137.548 101.5,136.5C 102.628,135.738 103.795,135.071 105,134.5C 107.916,129.085 111.416,124.085 115.5,119.5C 107.003,118.044 102.336,121.377 101.5,129.5C 99.5539,127.956 99.0539,125.956 100,123.5C 103.334,120.439 106.834,117.772 110.5,115.5 Z"/></g>
<g><path style="opacity:1" fill="#ad8d93" d="M 196.5,134.5 C 196.718,137.366 196.885,140.366 197,143.5C 198.167,145.167 199.333,146.833 200.5,148.5C 202.603,144.894 205.269,141.727 208.5,139C 211.099,138.231 213.599,138.398 216,139.5C 216.333,142.833 216.667,146.167 217,149.5C 218.743,147.679 220.243,145.679 221.5,143.5C 221.156,147.012 219.489,150.179 216.5,153C 214.08,153.687 211.913,153.187 210,151.5C 206.87,154.11 203.704,154.11 200.5,151.5C 196.635,155.554 192.301,156.22 187.5,153.5C 182.673,155.744 179.506,154.411 178,149.5C 176.945,152.056 175.112,153.723 172.5,154.5C 168.27,155.437 165.77,153.771 165,149.5C 163.106,152.844 160.273,154.178 156.5,153.5C 156.268,149.196 157.268,145.196 159.5,141.5C 159.167,141.167 158.833,140.833 158.5,140.5C 154.607,144.064 151.941,148.397 150.5,153.5C 149.201,152.91 148.368,151.91 148,150.5C 146.214,153.362 143.881,154.028 141,152.5C 140.683,148.09 141.183,143.757 142.5,139.5C 143.5,139.5 144.5,139.5 145.5,139.5C 145.154,142.885 144.488,146.218 143.5,149.5C 143.833,150.167 144.167,150.833 144.5,151.5C 148.924,148.317 150.924,143.983 150.5,138.5C 153.388,138.22 154.888,139.553 155,142.5C 155.949,140.907 157.115,139.574 158.5,138.5C 158.833,138.5 159.167,138.5 159.5,138.5C 160.5,138.5 161.5,138.5 162.5,138.5C 162.407,142.968 161.907,147.301 161,151.5C 164.079,147.676 166.912,143.676 169.5,139.5C 172.612,138.017 175.445,138.35 178,140.5C 178.699,142.074 178.365,143.407 177,144.5C 176.42,139.599 174.753,139.265 172,143.5C 170.711,146.351 170.211,149.351 170.5,152.5C 172.308,152.509 173.975,152.009 175.5,151C 177.712,148.079 179.545,144.912 181,141.5C 183.754,138.235 186.921,137.735 190.5,140C 185.032,142.324 182.699,146.49 183.5,152.5C 185.703,152.396 187.703,151.73 189.5,150.5C 190.749,148.33 191.749,145.996 192.5,143.5C 191.604,141.199 191.438,138.866 192,136.5C 193.049,134.893 194.549,134.227 196.5,134.5 Z"/></g>
<g><path style="opacity:1" fill="#f0ebe9" d="M 189.5,150.5 C 191.388,149.06 193.055,147.394 194.5,145.5C 195.647,147.765 195.814,150.098 195,152.5C 192.189,154.18 190.356,153.513 189.5,150.5 Z"/></g>
<g><path style="opacity:1" fill="#f4e9ea" d="M 210.5,140.5 C 212.346,140.222 213.68,140.889 214.5,142.5C 212.547,146.12 209.881,149.12 206.5,151.5C 205.369,149.926 205.202,148.259 206,146.5C 207.332,144.34 208.832,142.34 210.5,140.5 Z"/></g>
<g><path style="opacity:1" fill="#f3eded" d="M 196.5,134.5 C 194.549,134.227 193.049,134.893 192,136.5C 191.438,138.866 191.604,141.199 192.5,143.5C 191.749,145.996 190.749,148.33 189.5,150.5C 187.703,151.73 185.703,152.396 183.5,152.5C 182.699,146.49 185.032,142.324 190.5,140C 186.921,137.735 183.754,138.235 181,141.5C 179.545,144.912 177.712,148.079 175.5,151C 173.975,152.009 172.308,152.509 170.5,152.5C 170.211,149.351 170.711,146.351 172,143.5C 174.753,139.265 176.42,139.599 177,144.5C 178.365,143.407 178.699,142.074 178,140.5C 175.445,138.35 172.612,138.017 169.5,139.5C 166.912,143.676 164.079,147.676 161,151.5C 161.907,147.301 162.407,142.968 162.5,138.5C 161.5,138.5 160.5,138.5 159.5,138.5C 163.4,137.205 167.4,136.705 171.5,137C 172.815,135.605 172.481,134.605 170.5,134C 179.343,133.176 188.01,133.343 196.5,134.5 Z"/></g>
<g><path style="opacity:1" fill="#c6c0c2" d="M 301.5,103.5 C 301.648,116.358 301.981,129.358 302.5,142.5C 301.214,144.626 300.381,146.959 300,149.5C 295.52,152.415 290.686,153.081 285.5,151.5C 283.775,152.015 282.108,152.682 280.5,153.5C 281.219,156.313 281.886,159.146 282.5,162C 282.241,163.261 281.574,164.261 280.5,165C 281.059,165.725 281.392,166.558 281.5,167.5C 280.005,169.17 278.672,171.003 277.5,173C 271.284,174.457 265.118,175.29 259,175.5C 257.739,175.241 256.739,174.574 256,173.5C 252.399,174.82 248.899,174.82 245.5,173.5C 246.811,170.867 248.311,170.867 250,173.5C 250.674,172.422 251.674,171.755 253,171.5C 255,172.833 257,172.833 259,171.5C 260.326,171.755 261.326,172.422 262,173.5C 263.525,172.28 265.359,171.613 267.5,171.5C 269.429,171.54 271.262,171.873 273,172.5C 273.5,172 274,171.5 274.5,171C 262.171,170.5 249.838,170.333 237.5,170.5C 249.989,169.505 262.656,169.171 275.5,169.5C 275.334,162.492 275.5,155.492 276,148.5C 282.419,147.687 288.919,147.187 295.5,147C 296.471,141.928 296.805,136.762 296.5,131.5C 297.29,132.609 297.79,133.942 298,135.5C 297.902,129.38 298.736,123.546 300.5,118C 298.593,113.482 297.926,108.648 298.5,103.5C 299.5,103.5 300.5,103.5 301.5,103.5 Z"/></g>
<g><path style="opacity:1" fill="#faf7e4" d="M 216.5,112.5 C 220.094,113.16 223.761,113.327 227.5,113C 228.772,116.213 230.105,119.38 231.5,122.5C 229.704,122.269 227.871,122.935 226,124.5C 225.667,126.833 225.333,129.167 225,131.5C 223.989,132.337 222.822,132.67 221.5,132.5C 221.5,133.5 221.5,134.5 221.5,135.5C 224.548,135.494 225.048,136.494 223,138.5C 218.906,137.485 215.906,135.818 214,133.5C 213.167,133.667 212.333,133.833 211.5,134C 211.943,135.518 211.276,136.685 209.5,137.5C 208.614,136.675 208.281,135.675 208.5,134.5C 204.336,134.874 200.336,134.874 196.5,134.5C 188.01,133.343 179.343,133.176 170.5,134C 172.481,134.605 172.815,135.605 171.5,137C 167.4,136.705 163.4,137.205 159.5,138.5C 159.167,138.5 158.833,138.5 158.5,138.5C 159.607,136.031 161.607,135.031 164.5,135.5C 163.786,133.126 162.452,131.126 160.5,129.5C 161.754,127.666 162.421,125.666 162.5,123.5C 163.473,125.948 163.806,128.615 163.5,131.5C 183.34,131.83 203.007,131.497 222.5,130.5C 223.497,130.53 224.164,130.03 224.5,129C 224.078,124.232 224.078,119.399 224.5,114.5C 222.94,114.519 221.44,114.852 220,115.5C 218.05,115.293 216.884,114.293 216.5,112.5 Z"/></g>
<g><path style="opacity:1" fill="#e4ca89" d="M 179.5,105.5 C 179.75,108.505 178.417,110.338 175.5,111C 177.196,112.176 178.862,113.343 180.5,114.5C 179.469,115.249 178.302,115.915 177,116.5C 175.989,115.663 174.822,115.33 173.5,115.5C 173.833,117.5 174.167,119.5 174.5,121.5C 171.67,122.961 168.836,123.627 166,123.5C 165.242,125.769 165.409,127.936 166.5,130C 184.209,130.292 201.875,130.292 219.5,130C 220.856,127.726 220.356,125.893 218,124.5C 216.403,125.885 214.57,126.551 212.5,126.5C 212.5,125.167 212.5,123.833 212.5,122.5C 214.042,123.301 215.708,123.634 217.5,123.5C 217.5,121.833 217.5,120.167 217.5,118.5C 219.655,118.372 221.655,118.872 223.5,120C 222.833,120.667 222.167,121.333 221.5,122C 222.444,124.719 222.777,127.552 222.5,130.5C 203.007,131.497 183.34,131.83 163.5,131.5C 163.806,128.615 163.473,125.948 162.5,123.5C 160.707,117.511 163.04,115.178 169.5,116.5C 170.011,113.978 171.011,111.645 172.5,109.5C 173.478,109.189 174.145,108.522 174.5,107.5C 171.019,102.005 172.353,100.005 178.5,101.5C 179.246,102.736 179.579,104.07 179.5,105.5 Z"/></g>
<g><path style="opacity:1" fill="#eac065" d="M 212.5,122.5 C 212.5,123.833 212.5,125.167 212.5,126.5C 214.57,126.551 216.403,125.885 218,124.5C 220.356,125.893 220.856,127.726 219.5,130C 201.875,130.292 184.209,130.292 166.5,130C 165.409,127.936 165.242,125.769 166,123.5C 168.836,123.627 171.67,122.961 174.5,121.5C 174.167,119.5 173.833,117.5 173.5,115.5C 174.822,115.33 175.989,115.663 177,116.5C 178.302,115.915 179.469,115.249 180.5,114.5C 182.094,114.92 183.594,115.586 185,116.5C 186.333,115.167 187.667,113.833 189,112.5C 189.945,112.905 190.612,113.572 191,114.5C 192.64,110.66 194.14,110.66 195.5,114.5C 196.281,113.263 197.281,112.263 198.5,111.5C 198.112,113.359 198.112,115.359 198.5,117.5C 200.51,119.171 202.843,119.838 205.5,119.5C 205.5,118.167 205.5,116.833 205.5,115.5C 208.167,116.833 210.833,116.833 213.5,115.5C 213.326,117.861 212.993,120.194 212.5,122.5 Z"/></g>
<g><path style="opacity:1" fill="#f8f3f4" d="M 123.5,119.5 C 126.167,119.5 128.833,119.5 131.5,119.5C 131.65,126.203 128.65,131.036 122.5,134C 119.483,135.281 116.483,136.447 113.5,137.5C 112.5,137.167 111.5,136.833 110.5,136.5C 113.77,129.912 118.103,124.246 123.5,119.5 Z"/></g>
<g><path style="opacity:1" fill="#c5b9bb" d="M 160.5,101.5 C 161.043,101.56 161.376,101.893 161.5,102.5C 159.861,103.916 159.027,105.583 159,107.5C 160.444,105.845 162.278,105.178 164.5,105.5C 164.739,107.467 164.406,109.301 163.5,111C 159.725,111.218 156.058,111.384 152.5,111.5C 151.432,109.813 151.599,108.146 153,106.5C 155.902,105.335 158.402,103.669 160.5,101.5 Z"/></g>
<g><path style="opacity:1" fill="#c1b2b5" d="M 141.5,101.5 C 142.376,101.369 143.043,101.702 143.5,102.5C 142.167,103.62 141.667,104.953 142,106.5C 143.88,105.07 145.38,105.404 146.5,107.5C 145.609,108.59 144.609,108.59 143.5,107.5C 142.614,108.325 142.281,109.325 142.5,110.5C 139.545,111.159 136.545,111.492 133.5,111.5C 132.996,107.665 131.996,107.665 130.5,111.5C 129.676,109.252 128.676,109.086 127.5,111C 125.19,111.497 122.857,111.663 120.5,111.5C 120.128,108.978 120.961,106.978 123,105.5C 123.691,107.891 124.691,107.891 126,105.5C 126.333,106.167 126.667,106.833 127,107.5C 129.398,104.946 131.731,104.946 134,107.5C 135.558,105.232 137.724,104.066 140.5,104C 141.252,103.329 141.586,102.496 141.5,101.5 Z"/></g>
<g><path style="opacity:1" fill="#e9d7a0" d="M 191.5,91.5 C 189.986,95.8373 189.32,100.171 189.5,104.5C 189.709,105.086 190.043,105.586 190.5,106C 193.146,106.497 195.813,106.664 198.5,106.5C 198.702,104.011 198.202,101.677 197,99.5C 195.556,101.155 193.722,101.822 191.5,101.5C 191.5,99.8333 191.5,98.1667 191.5,96.5C 193.099,96.7678 194.432,96.4345 195.5,95.5C 198.079,96.2276 200.746,96.7276 203.5,97C 204.38,98.3561 204.714,99.8561 204.5,101.5C 203.167,101.5 201.833,101.5 200.5,101.5C 200.015,106.159 201.848,107.492 206,105.5C 208.126,99.586 210.959,99.086 214.5,104C 213.768,105.765 212.435,106.932 210.5,107.5C 212.519,109.19 214.519,110.856 216.5,112.5C 216.884,114.293 218.05,115.293 220,115.5C 221.44,114.852 222.94,114.519 224.5,114.5C 224.078,119.399 224.078,124.232 224.5,129C 224.164,130.03 223.497,130.53 222.5,130.5C 222.777,127.552 222.444,124.719 221.5,122C 222.167,121.333 222.833,120.667 223.5,120C 221.655,118.872 219.655,118.372 217.5,118.5C 217.5,120.167 217.5,121.833 217.5,123.5C 215.708,123.634 214.042,123.301 212.5,122.5C 212.993,120.194 213.326,117.861 213.5,115.5C 210.833,116.833 208.167,116.833 205.5,115.5C 205.5,116.833 205.5,118.167 205.5,119.5C 202.843,119.838 200.51,119.171 198.5,117.5C 198.112,115.359 198.112,113.359 198.5,111.5C 197.281,112.263 196.281,113.263 195.5,114.5C 194.14,110.66 192.64,110.66 191,114.5C 190.612,113.572 189.945,112.905 189,112.5C 187.667,113.833 186.333,115.167 185,116.5C 183.594,115.586 182.094,114.92 180.5,114.5C 178.862,113.343 177.196,112.176 175.5,111C 178.417,110.338 179.75,108.505 179.5,105.5C 181.5,105.5 183.5,105.5 185.5,105.5C 185.539,103.641 184.706,102.308 183,101.5C 182.275,96.4112 183.942,95.4112 188,98.5C 189.009,96.9751 189.509,95.3084 189.5,93.5C 189.5,93.1667 189.5,92.8333 189.5,92.5C 190.167,92.1667 190.833,91.8333 191.5,91.5 Z"/></g>
<g><path style="opacity:1" fill="#b7a5a8" d="M 109.5,96.5 C 111.167,96.5 112.833,96.5 114.5,96.5C 114.335,99.5184 114.502,102.518 115,105.5C 116.695,102.305 119.195,99.9722 122.5,98.5C 122.833,98.8333 123.167,99.1667 123.5,99.5C 120.806,103.554 118.639,107.888 117,112.5C 116.667,110.833 116.333,109.167 116,107.5C 112.782,111.776 111.116,111.109 111,105.5C 109.667,107.5 108.333,109.5 107,111.5C 107.435,106.956 109.268,102.956 112.5,99.5C 109.513,98.4062 107.346,99.4062 106,102.5C 105.651,99.6695 106.817,97.6695 109.5,96.5 Z"/></g>
<g><path style="opacity:1" fill="#f9f5dc" d="M 216.5,112.5 C 214.519,110.856 212.519,109.19 210.5,107.5C 212.435,106.932 213.768,105.765 214.5,104C 210.959,99.086 208.126,99.586 206,105.5C 201.848,107.492 200.015,106.159 200.5,101.5C 201.833,101.5 203.167,101.5 204.5,101.5C 204.714,99.8561 204.38,98.3561 203.5,97C 200.746,96.7276 198.079,96.2276 195.5,95.5C 195.5,94.1667 195.5,92.8333 195.5,91.5C 194.167,91.5 192.833,91.5 191.5,91.5C 190.833,91.8333 190.167,92.1667 189.5,92.5C 190.152,91.2749 191.319,90.6083 193,90.5C 194.167,90.6667 195.333,90.8333 196.5,91C 197.257,92.5122 198.257,93.8455 199.5,95C 204.653,97.0497 209.986,98.7164 215.5,100C 215.894,104.15 216.228,108.317 216.5,112.5 Z"/></g>
<g><path style="opacity:1" fill="#e0be6f" d="M 191.5,91.5 C 192.833,91.5 194.167,91.5 195.5,91.5C 195.5,92.8333 195.5,94.1667 195.5,95.5C 194.432,96.4345 193.099,96.7678 191.5,96.5C 191.5,98.1667 191.5,99.8333 191.5,101.5C 193.722,101.822 195.556,101.155 197,99.5C 198.202,101.677 198.702,104.011 198.5,106.5C 195.813,106.664 193.146,106.497 190.5,106C 190.043,105.586 189.709,105.086 189.5,104.5C 189.32,100.171 189.986,95.8373 191.5,91.5 Z"/></g>
<g><path style="opacity:1" fill="#fcf9e4" d="M 189.5,93.5 C 189.509,95.3084 189.009,96.9751 188,98.5C 183.942,95.4112 182.275,96.4112 183,101.5C 184.706,102.308 185.539,103.641 185.5,105.5C 183.5,105.5 181.5,105.5 179.5,105.5C 179.579,104.07 179.246,102.736 178.5,101.5C 172.353,100.005 171.019,102.005 174.5,107.5C 174.145,108.522 173.478,109.189 172.5,109.5C 172.112,107.315 171.112,105.482 169.5,104C 171.201,102.14 172.201,99.973 172.5,97.5C 173.822,97.67 174.989,97.3366 176,96.5C 176.483,97.448 176.649,98.448 176.5,99.5C 177.552,99.6495 178.552,99.4828 179.5,99C 180.222,97.2495 181.222,95.7495 182.5,94.5C 184.95,94.702 187.283,94.3686 189.5,93.5 Z"/></g>
<g><path style="opacity:0.227" fill="#7b5f66" d="M 309.5,150.5 C 309.029,154.503 307.029,157.669 303.5,160C 299.78,161.644 295.947,162.81 292,163.5C 289.804,180.965 279.804,188.631 262,186.5C 255.86,185.439 249.694,185.273 243.5,186C 226.436,200.865 206.769,210.365 184.5,214.5C 168.5,214.5 152.5,214.5 136.5,214.5C 114.751,210.459 95.4173,201.292 78.5,187C 66.5236,185.952 54.5236,184.952 42.5,184C 38.6561,182.653 35.9894,180.153 34.5,176.5C 36.9639,178.57 39.6305,180.404 42.5,182C 54.1796,182.445 65.8463,183.112 77.5,184C 86.5004,190.169 95.8338,195.836 105.5,201C 154.024,220.801 199.358,215.135 241.5,184C 253.167,183.667 264.833,183.333 276.5,183C 286.427,178.872 290.76,171.372 289.5,160.5C 298.422,161.373 305.089,158.039 309.5,150.5 Z"/></g>
<g><path style="opacity:1" fill="#b9aeb0" d="M 168.5,181.5 C 167.408,182.236 166.408,183.402 165.5,185C 165.833,185.833 166.167,186.667 166.5,187.5C 168.552,186.389 169.886,184.723 170.5,182.5C 172.042,181.699 173.708,181.366 175.5,181.5C 175.628,183.655 175.128,185.655 174,187.5C 171.891,187.566 169.725,187.899 167.5,188.5C 166.833,189.833 166.167,191.167 165.5,192.5C 164.999,190.345 163.999,188.678 162.5,187.5C 162.167,183.167 164.167,181.167 168.5,181.5 Z"/></g>
<g><path style="opacity:1" fill="#aa9d9f" d="M 162.5,187.5 C 160.971,187.681 159.304,188.014 157.5,188.5C 154.332,183.956 155.665,181.622 161.5,181.5C 161.205,183.735 161.539,185.735 162.5,187.5 Z"/></g>
</svg>
